<?xml version="1.0" encoding="UTF-8" standalone="no"?>
<svg width="792px" height="120px" viewBox="0 0 792 120" version="1.1" xmlns="http://www.w3.org/2000/svg" xmlns:xlink="http://www.w3.org/1999/xlink">
    <!-- Generator: Sketch 41 (35326) - http://www.bohemiancoding.com/sketch -->
    <title>Artboard</title>
    <desc>Created with Sketch.</desc>
    <defs></defs>
    <g id="Page-1" stroke="none" stroke-width="1" fill="none" fill-rule="evenodd">
        <g id="Artboard">
            <rect id="Rectangle" fill="#5C7CFA" x="0" y="60" width="270" height="2"></rect>
            <rect id="Rectangle-Copy-4" fill="#FCC419" x="270" y="60" width="100" height="2"></rect>
            <rect id="Rectangle-Copy-6" fill="#5C7CFA" x="370" y="59" width="270" height="2"></rect>
            <g id="Group" transform="translate(10.000000, 40.000000)">
                <rect id="Rectangle-Copy" fill="#5C7CFA" x="0" y="0" width="80" height="40" rx="2"></rect>
                <polygon id="*" fill="#FFFFFF" points="41.04 18.76 43.66 17.9 44.26 19.8 41.64 20.64 43.3 22.92 41.64 24.14 39.96 21.84 38.34 24.04 36.72 22.82 38.4 20.64 35.74 19.72 36.38 17.82 39 18.76 39 16 41.04 16"></polygon>
            </g>
            <g id="Group-Copy" transform="translate(550.000000, 40.000000)">
                <rect id="Rectangle-Copy" fill="#5C7CFA" x="0" y="0" width="80" height="40" rx="2"></rect>
                <polygon id="*" fill="#FFFFFF" points="41.04 18.76 43.66 17.9 44.26 19.8 41.64 20.64 43.3 22.92 41.64 24.14 39.96 21.84 38.34 24.04 36.72 22.82 38.4 20.64 35.74 19.72 36.38 17.82 39 18.76 39 16 41.04 16"></polygon>
            </g>
            <g id="Group-2" transform="translate(100.000000, 40.000000)">
                <rect id="Rectangle-Copy-5" fill="#5C7CFA" x="0" y="0" width="80" height="40" rx="2"></rect>
                <text id="create*" font-family="Avenir-Black, Avenir" font-size="10" font-weight="700" fill="#FFFFFF">
                    <tspan x="25" y="23">create*</tspan>
                </text>
            </g>
            <g id="Group-2-Copy" transform="translate(460.000000, 40.000000)">
                <rect id="Rectangle-Copy-5" fill="#5C7CFA" x="0" y="0" width="80" height="40" rx="2"></rect>
                <text id="create*" font-family="Avenir-Black, Avenir" font-size="10" font-weight="700" fill="#FFFFFF">
                    <tspan x="22.5" y="23">create*</tspan>
                </text>
            </g>
            <g id="Group-3" transform="translate(190.000000, 40.000000)">
                <rect id="Rectangle-Copy-3" fill="#5C7CFA" x="0" y="0" width="80" height="40" rx="2"></rect>
                <text id="createUser" font-family="Avenir-Black, Avenir" font-size="10" font-weight="700" fill="#FFFFFF">
                    <tspan x="14" y="23">createUser</tspan>
                </text>
            </g>
            <g id="Group-3-Copy" transform="translate(370.000000, 40.000000)">
                <rect id="Rectangle-Copy-3" fill="#5C7CFA" x="0" y="0" width="80" height="40" rx="2"></rect>
                <text id="createUser" font-family="Avenir-Black, Avenir" font-size="10" font-weight="700" fill="#FFFFFF">
                    <tspan x="14" y="23">createUser</tspan>
                </text>
            </g>
            <g id="Group-3-Copy-2" transform="translate(712.000000, 0.000000)">
                <rect id="Rectangle-Copy-3" fill="#20C997" x="0" y="0" width="80" height="40" rx="2"></rect>
                <text id="finalize" font-family="Avenir-Black, Avenir" font-size="10" font-weight="700" fill="#FFFFFF">
                    <tspan x="23" y="23">finalize</tspan>
                </text>
            </g>
            <g id="Group-3-Copy-3" transform="translate(712.000000, 80.000000)">
                <rect id="Rectangle-Copy-3" fill="#FF6B6B" x="0" y="0" width="80" height="40" rx="2"></rect>
                <text id="error" font-family="Avenir-Black, Avenir" font-size="10" font-weight="700" fill="#FFFFFF">
                    <tspan x="27.5" y="23">error</tspan>
                </text>
            </g>
            <g id="Group-5" transform="translate(280.000000, 40.000000)">
                <rect id="Rectangle-Copy-3" fill="#FCC419" x="0" y="0" width="80" height="40" rx="2"></rect>
                <text id="resolve" font-family="Avenir-Black, Avenir" font-size="10" font-weight="700" fill="#FFFFFF">
                    <tspan x="22.5" y="23">resolve</tspan>
                </text>
            </g>
            <path d="M31.562,21.72 L34.73,21.72 C35.0980018,21.72 35.4679981,21.7459997 35.84,21.798 C36.2120019,21.8500003 36.5459985,21.9539992 36.842,22.11 C37.1380015,22.2660008 37.3779991,22.4839986 37.562,22.764 C37.7460009,23.0440014 37.838,23.4159977 37.838,23.88 C37.838,24.3600024 37.7040013,24.7579984 37.436,25.074 C37.1679987,25.3900016 36.8140022,25.6159993 36.374,25.752 L36.374,25.776 C36.6540014,25.8160002 36.9079989,25.8939994 37.136,26.01 C37.3640011,26.1260006 37.5599992,26.2739991 37.724,26.454 C37.8880008,26.6340009 38.0139996,26.8439988 38.102,27.084 C38.1900004,27.3240012 38.234,27.5799986 38.234,27.852 C38.234,28.3000022 38.138001,28.6739985 37.946,28.974 C37.753999,29.2740015 37.5060015,29.5159991 37.202,29.7 C36.8979985,29.8840009 36.5560019,30.0159996 36.176,30.096 C35.7959981,30.1760004 35.4180019,30.216 35.042,30.216 L31.562,30.216 L31.562,21.72 Z M33.434,25.116 L34.79,25.116 C34.9340007,25.116 35.0759993,25.1000002 35.216,25.068 C35.3560007,25.0359998 35.4819994,24.9840004 35.594,24.912 C35.7060006,24.8399996 35.7959997,24.7440006 35.864,24.624 C35.9320003,24.5039994 35.966,24.3600008 35.966,24.192 C35.966,24.0159991 35.9280004,23.8700006 35.852,23.754 C35.7759996,23.6379994 35.6780006,23.5480003 35.558,23.484 C35.4379994,23.4199997 35.3020008,23.3740001 35.15,23.346 C34.9979992,23.3179999 34.8500007,23.304 34.706,23.304 L33.434,23.304 L33.434,25.116 Z M33.434,28.632 L35.114,28.632 C35.2580007,28.632 35.4039993,28.6160002 35.552,28.584 C35.7000007,28.5519998 35.8339994,28.4960004 35.954,28.416 C36.0740006,28.3359996 36.1719996,28.2320006 36.248,28.104 C36.3240004,27.9759994 36.362,27.8200009 36.362,27.636 C36.362,27.435999 36.3120005,27.2740006 36.212,27.15 C36.1119995,27.0259994 35.9860008,26.9320003 35.834,26.868 C35.6819992,26.8039997 35.5180009,26.7600001 35.342,26.736 C35.1659991,26.7119999 35.0020008,26.7 34.85,26.7 L33.434,26.7 L33.434,28.632 Z M44.63,29.208 C44.3419986,29.5760018 43.9780022,29.859999 43.538,30.06 C43.0979978,30.260001 42.6420024,30.36 42.17,30.36 C41.7219978,30.36 41.300002,30.2880007 40.904,30.144 C40.507998,29.9999993 40.1640015,29.7940013 39.872,29.526 C39.5799985,29.2579987 39.3500008,28.9360019 39.182,28.56 C39.0139992,28.1839981 38.93,27.7640023 38.93,27.3 C38.93,26.8359977 39.0139992,26.4160019 39.182,26.04 C39.3500008,25.6639981 39.5799985,25.3420013 39.872,25.074 C40.1640015,24.8059987 40.507998,24.6000007 40.904,24.456 C41.300002,24.3119993 41.7219978,24.24 42.17,24.24 C42.5860021,24.24 42.9639983,24.3119993 43.304,24.456 C43.6440017,24.6000007 43.9319988,24.8059987 44.168,25.074 C44.4040012,25.3420013 44.5859994,25.6639981 44.714,26.04 C44.8420006,26.4160019 44.906,26.8359977 44.906,27.3 L44.906,27.864 L40.73,27.864 C40.8020004,28.2080017 40.9579988,28.481999 41.198,28.686 C41.4380012,28.890001 41.7339982,28.992 42.086,28.992 C42.3820015,28.992 42.631999,28.9260007 42.836,28.794 C43.040001,28.6619993 43.2179992,28.492001 43.37,28.284 L44.63,29.208 Z M43.106,26.64 C43.114,26.3359985 43.014001,26.0760011 42.806,25.86 C42.597999,25.6439989 42.3300016,25.536 42.002,25.536 C41.801999,25.536 41.6260008,25.5679997 41.474,25.632 C41.3219992,25.6960003 41.1920005,25.7779995 41.084,25.878 C40.9759995,25.9780005 40.8920003,26.0939993 40.832,26.226 C40.7719997,26.3580007 40.738,26.4959993 40.73,26.64 L43.106,26.64 Z M46.622,25.824 L45.434,25.824 L45.434,24.384 L46.622,24.384 L46.622,23.352 C46.622,23.0319984 46.6499997,22.7300014 46.706,22.446 C46.7620003,22.1619986 46.8699992,21.9120011 47.03,21.696 C47.1900008,21.4799989 47.4199985,21.3100006 47.72,21.186 C48.0200015,21.0619994 48.4139976,21 48.902,21 C49.0860009,21 49.2659991,21.0079999 49.442,21.024 C49.6180009,21.0400001 49.7899992,21.0679998 49.958,21.108 L49.874,22.632 C49.7699995,22.5919998 49.6740004,22.5620001 49.586,22.542 C49.4979996,22.5219999 49.3980006,22.512 49.286,22.512 C48.9979986,22.512 48.7820007,22.5739994 48.638,22.698 C48.4939993,22.8220006 48.422,23.0759981 48.422,23.46 L48.422,24.384 L49.754,24.384 L49.754,25.824 L48.422,25.824 L48.422,30.216 L46.622,30.216 L46.622,25.824 Z M50.222,27.3 C50.222,26.8359977 50.3059992,26.4160019 50.474,26.04 C50.6420008,25.6639981 50.8719985,25.3420013 51.164,25.074 C51.4560015,24.8059987 51.799998,24.6000007 52.196,24.456 C52.592002,24.3119993 53.0139978,24.24 53.462,24.24 C53.9100022,24.24 54.331998,24.3119993 54.728,24.456 C55.124002,24.6000007 55.4679985,24.8059987 55.76,25.074 C56.0520015,25.3420013 56.2819992,25.6639981 56.45,26.04 C56.6180008,26.4160019 56.702,26.8359977 56.702,27.3 C56.702,27.7640023 56.6180008,28.1839981 56.45,28.56 C56.2819992,28.9360019 56.0520015,29.2579987 55.76,29.526 C55.4679985,29.7940013 55.124002,29.9999993 54.728,30.144 C54.331998,30.2880007 53.9100022,30.36 53.462,30.36 C53.0139978,30.36 52.592002,30.2880007 52.196,30.144 C51.799998,29.9999993 51.4560015,29.7940013 51.164,29.526 C50.8719985,29.2579987 50.6420008,28.9360019 50.474,28.56 C50.3059992,28.1839981 50.222,27.7640023 50.222,27.3 Z M52.022,27.3 C52.022,27.7400022 52.1479987,28.0959986 52.4,28.368 C52.6520013,28.6400014 53.0059977,28.776 53.462,28.776 C53.9180023,28.776 54.2719987,28.6400014 54.524,28.368 C54.7760013,28.0959986 54.902,27.7400022 54.902,27.3 C54.902,26.8599978 54.7760013,26.5040014 54.524,26.232 C54.2719987,25.9599986 53.9180023,25.824 53.462,25.824 C53.0059977,25.824 52.6520013,25.9599986 52.4,26.232 C52.1479987,26.5040014 52.022,26.8599978 52.022,27.3 Z M57.758,24.384 L59.558,24.384 L59.558,25.32 L59.582,25.32 C59.774001,24.9599982 60.0019987,24.6900009 60.266,24.51 C60.5300013,24.3299991 60.861998,24.24 61.262,24.24 C61.3660005,24.24 61.4699995,24.244 61.574,24.252 C61.6780005,24.26 61.7739996,24.2759999 61.862,24.3 L61.862,25.944 C61.7339994,25.9039998 61.6080006,25.8740001 61.484,25.854 C61.3599994,25.8339999 61.2300007,25.824 61.094,25.824 C60.7499983,25.824 60.478001,25.8719995 60.278,25.968 C60.077999,26.0640005 59.9240005,26.1979991 59.816,26.37 C59.7079995,26.5420009 59.6380002,26.7479988 59.606,26.988 C59.5739998,27.2280012 59.558,27.4919986 59.558,27.78 L59.558,30.216 L57.758,30.216 L57.758,24.384 Z M68.162,29.208 C67.8739986,29.5760018 67.5100022,29.859999 67.07,30.06 C66.6299978,30.260001 66.1740024,30.36 65.702,30.36 C65.2539978,30.36 64.832002,30.2880007 64.436,30.144 C64.039998,29.9999993 63.6960015,29.7940013 63.404,29.526 C63.1119985,29.2579987 62.8820008,28.9360019 62.714,28.56 C62.5459992,28.1839981 62.462,27.7640023 62.462,27.3 C62.462,26.8359977 62.5459992,26.4160019 62.714,26.04 C62.8820008,25.6639981 63.1119985,25.3420013 63.404,25.074 C63.6960015,24.8059987 64.039998,24.6000007 64.436,24.456 C64.832002,24.3119993 65.2539978,24.24 65.702,24.24 C66.1180021,24.24 66.4959983,24.3119993 66.836,24.456 C67.1760017,24.6000007 67.4639988,24.8059987 67.7,25.074 C67.9360012,25.3420013 68.1179994,25.6639981 68.246,26.04 C68.3740006,26.4160019 68.438,26.8359977 68.438,27.3 L68.438,27.864 L64.262,27.864 C64.3340004,28.2080017 64.4899988,28.481999 64.73,28.686 C64.9700012,28.890001 65.2659982,28.992 65.618,28.992 C65.9140015,28.992 66.163999,28.9260007 66.368,28.794 C66.572001,28.6619993 66.7499992,28.492001 66.902,28.284 L68.162,29.208 Z M66.638,26.64 C66.646,26.3359985 66.546001,26.0760011 66.338,25.86 C66.129999,25.6439989 65.8620016,25.536 65.534,25.536 C65.333999,25.536 65.1580008,25.5679997 65.006,25.632 C64.8539992,25.6960003 64.7240005,25.7779995 64.616,25.878 C64.5079995,25.9780005 64.4240003,26.0939993 64.364,26.226 C64.3039997,26.3580007 64.27,26.4959993 64.262,26.64 L66.638,26.64 Z" id="Before" fill="#5C7CFA"></path>
            <path d="M121.562,21.72 L124.73,21.72 C125.098002,21.72 125.467998,21.7459997 125.84,21.798 C126.212002,21.8500003 126.545999,21.9539992 126.842,22.11 C127.138001,22.2660008 127.377999,22.4839986 127.562,22.764 C127.746001,23.0440014 127.838,23.4159977 127.838,23.88 C127.838,24.3600024 127.704001,24.7579984 127.436,25.074 C127.167999,25.3900016 126.814002,25.6159993 126.374,25.752 L126.374,25.776 C126.654001,25.8160002 126.907999,25.8939994 127.136,26.01 C127.364001,26.1260006 127.559999,26.2739991 127.724,26.454 C127.888001,26.6340009 128.014,26.8439988 128.102,27.084 C128.19,27.3240012 128.234,27.5799986 128.234,27.852 C128.234,28.3000022 128.138001,28.6739985 127.946,28.974 C127.753999,29.2740015 127.506002,29.5159991 127.202,29.7 C126.897998,29.8840009 126.556002,30.0159996 126.176,30.096 C125.795998,30.1760004 125.418002,30.216 125.042,30.216 L121.562,30.216 L121.562,21.72 Z M123.434,25.116 L124.79,25.116 C124.934001,25.116 125.075999,25.1000002 125.216,25.068 C125.356001,25.0359998 125.481999,24.9840004 125.594,24.912 C125.706001,24.8399996 125.796,24.7440006 125.864,24.624 C125.932,24.5039994 125.966,24.3600008 125.966,24.192 C125.966,24.0159991 125.928,23.8700006 125.852,23.754 C125.776,23.6379994 125.678001,23.5480003 125.558,23.484 C125.437999,23.4199997 125.302001,23.3740001 125.15,23.346 C124.997999,23.3179999 124.850001,23.304 124.706,23.304 L123.434,23.304 L123.434,25.116 Z M123.434,28.632 L125.114,28.632 C125.258001,28.632 125.403999,28.6160002 125.552,28.584 C125.700001,28.5519998 125.833999,28.4960004 125.954,28.416 C126.074001,28.3359996 126.172,28.2320006 126.248,28.104 C126.324,27.9759994 126.362,27.8200009 126.362,27.636 C126.362,27.435999 126.312,27.2740006 126.212,27.15 C126.111999,27.0259994 125.986001,26.9320003 125.834,26.868 C125.681999,26.8039997 125.518001,26.7600001 125.342,26.736 C125.165999,26.7119999 125.002001,26.7 124.85,26.7 L123.434,26.7 L123.434,28.632 Z M134.63,29.208 C134.341999,29.5760018 133.978002,29.859999 133.538,30.06 C133.097998,30.260001 132.642002,30.36 132.17,30.36 C131.721998,30.36 131.300002,30.2880007 130.904,30.144 C130.507998,29.9999993 130.164001,29.7940013 129.872,29.526 C129.579999,29.2579987 129.350001,28.9360019 129.182,28.56 C129.013999,28.1839981 128.93,27.7640023 128.93,27.3 C128.93,26.8359977 129.013999,26.4160019 129.182,26.04 C129.350001,25.6639981 129.579999,25.3420013 129.872,25.074 C130.164001,24.8059987 130.507998,24.6000007 130.904,24.456 C131.300002,24.3119993 131.721998,24.24 132.17,24.24 C132.586002,24.24 132.963998,24.3119993 133.304,24.456 C133.644002,24.6000007 133.931999,24.8059987 134.168,25.074 C134.404001,25.3420013 134.585999,25.6639981 134.714,26.04 C134.842001,26.4160019 134.906,26.8359977 134.906,27.3 L134.906,27.864 L130.73,27.864 C130.802,28.2080017 130.957999,28.481999 131.198,28.686 C131.438001,28.890001 131.733998,28.992 132.086,28.992 C132.382001,28.992 132.631999,28.9260007 132.836,28.794 C133.040001,28.6619993 133.217999,28.492001 133.37,28.284 L134.63,29.208 Z M133.106,26.64 C133.114,26.3359985 133.014001,26.0760011 132.806,25.86 C132.597999,25.6439989 132.330002,25.536 132.002,25.536 C131.801999,25.536 131.626001,25.5679997 131.474,25.632 C131.321999,25.6960003 131.192001,25.7779995 131.084,25.878 C130.975999,25.9780005 130.892,26.0939993 130.832,26.226 C130.772,26.3580007 130.738,26.4959993 130.73,26.64 L133.106,26.64 Z M136.622,25.824 L135.434,25.824 L135.434,24.384 L136.622,24.384 L136.622,23.352 C136.622,23.0319984 136.65,22.7300014 136.706,22.446 C136.762,22.1619986 136.869999,21.9120011 137.03,21.696 C137.190001,21.4799989 137.419998,21.3100006 137.72,21.186 C138.020001,21.0619994 138.413998,21 138.902,21 C139.086001,21 139.265999,21.0079999 139.442,21.024 C139.618001,21.0400001 139.789999,21.0679998 139.958,21.108 L139.874,22.632 C139.769999,22.5919998 139.674,22.5620001 139.586,22.542 C139.498,22.5219999 139.398001,22.512 139.286,22.512 C138.997999,22.512 138.782001,22.5739994 138.638,22.698 C138.493999,22.8220006 138.422,23.0759981 138.422,23.46 L138.422,24.384 L139.754,24.384 L139.754,25.824 L138.422,25.824 L138.422,30.216 L136.622,30.216 L136.622,25.824 Z M140.222,27.3 C140.222,26.8359977 140.305999,26.4160019 140.474,26.04 C140.642001,25.6639981 140.871999,25.3420013 141.164,25.074 C141.456001,24.8059987 141.799998,24.6000007 142.196,24.456 C142.592002,24.3119993 143.013998,24.24 143.462,24.24 C143.910002,24.24 144.331998,24.3119993 144.728,24.456 C145.124002,24.6000007 145.467999,24.8059987 145.76,25.074 C146.052001,25.3420013 146.281999,25.6639981 146.45,26.04 C146.618001,26.4160019 146.702,26.8359977 146.702,27.3 C146.702,27.7640023 146.618001,28.1839981 146.45,28.56 C146.281999,28.9360019 146.052001,29.2579987 145.76,29.526 C145.467999,29.7940013 145.124002,29.9999993 144.728,30.144 C144.331998,30.2880007 143.910002,30.36 143.462,30.36 C143.013998,30.36 142.592002,30.2880007 142.196,30.144 C141.799998,29.9999993 141.456001,29.7940013 141.164,29.526 C140.871999,29.2579987 140.642001,28.9360019 140.474,28.56 C140.305999,28.1839981 140.222,27.7640023 140.222,27.3 Z M142.022,27.3 C142.022,27.7400022 142.147999,28.0959986 142.4,28.368 C142.652001,28.6400014 143.005998,28.776 143.462,28.776 C143.918002,28.776 144.271999,28.6400014 144.524,28.368 C144.776001,28.0959986 144.902,27.7400022 144.902,27.3 C144.902,26.8599978 144.776001,26.5040014 144.524,26.232 C144.271999,25.9599986 143.918002,25.824 143.462,25.824 C143.005998,25.824 142.652001,25.9599986 142.4,26.232 C142.147999,26.5040014 142.022,26.8599978 142.022,27.3 Z M147.758,24.384 L149.558,24.384 L149.558,25.32 L149.582,25.32 C149.774001,24.9599982 150.001999,24.6900009 150.266,24.51 C150.530001,24.3299991 150.861998,24.24 151.262,24.24 C151.366001,24.24 151.469999,24.244 151.574,24.252 C151.678001,24.26 151.774,24.2759999 151.862,24.3 L151.862,25.944 C151.733999,25.9039998 151.608001,25.8740001 151.484,25.854 C151.359999,25.8339999 151.230001,25.824 151.094,25.824 C150.749998,25.824 150.478001,25.8719995 150.278,25.968 C150.077999,26.0640005 149.924001,26.1979991 149.816,26.37 C149.707999,26.5420009 149.638,26.7479988 149.606,26.988 C149.574,27.2280012 149.558,27.4919986 149.558,27.78 L149.558,30.216 L147.758,30.216 L147.758,24.384 Z M158.162,29.208 C157.873999,29.5760018 157.510002,29.859999 157.07,30.06 C156.629998,30.260001 156.174002,30.36 155.702,30.36 C155.253998,30.36 154.832002,30.2880007 154.436,30.144 C154.039998,29.9999993 153.696001,29.7940013 153.404,29.526 C153.111999,29.2579987 152.882001,28.9360019 152.714,28.56 C152.545999,28.1839981 152.462,27.7640023 152.462,27.3 C152.462,26.8359977 152.545999,26.4160019 152.714,26.04 C152.882001,25.6639981 153.111999,25.3420013 153.404,25.074 C153.696001,24.8059987 154.039998,24.6000007 154.436,24.456 C154.832002,24.3119993 155.253998,24.24 155.702,24.24 C156.118002,24.24 156.495998,24.3119993 156.836,24.456 C157.176002,24.6000007 157.463999,24.8059987 157.7,25.074 C157.936001,25.3420013 158.117999,25.6639981 158.246,26.04 C158.374001,26.4160019 158.438,26.8359977 158.438,27.3 L158.438,27.864 L154.262,27.864 C154.334,28.2080017 154.489999,28.481999 154.73,28.686 C154.970001,28.890001 155.265998,28.992 155.618,28.992 C155.914001,28.992 156.163999,28.9260007 156.368,28.794 C156.572001,28.6619993 156.749999,28.492001 156.902,28.284 L158.162,29.208 Z M156.638,26.64 C156.646,26.3359985 156.546001,26.0760011 156.338,25.86 C156.129999,25.6439989 155.862002,25.536 155.534,25.536 C155.333999,25.536 155.158001,25.5679997 155.006,25.632 C154.853999,25.6960003 154.724001,25.7779995 154.616,25.878 C154.507999,25.9780005 154.424,26.0939993 154.364,26.226 C154.304,26.3580007 154.27,26.4959993 154.262,26.64 L156.638,26.64 Z" id="Before-Copy" fill="#5C7CFA"></path>
            <path d="M211.562,21.72 L214.73,21.72 C215.098002,21.72 215.467998,21.7459997 215.84,21.798 C216.212002,21.8500003 216.545999,21.9539992 216.842,22.11 C217.138001,22.2660008 217.377999,22.4839986 217.562,22.764 C217.746001,23.0440014 217.838,23.4159977 217.838,23.88 C217.838,24.3600024 217.704001,24.7579984 217.436,25.074 C217.167999,25.3900016 216.814002,25.6159993 216.374,25.752 L216.374,25.776 C216.654001,25.8160002 216.907999,25.8939994 217.136,26.01 C217.364001,26.1260006 217.559999,26.2739991 217.724,26.454 C217.888001,26.6340009 218.014,26.8439988 218.102,27.084 C218.19,27.3240012 218.234,27.5799986 218.234,27.852 C218.234,28.3000022 218.138001,28.6739985 217.946,28.974 C217.753999,29.2740015 217.506002,29.5159991 217.202,29.7 C216.897998,29.8840009 216.556002,30.0159996 216.176,30.096 C215.795998,30.1760004 215.418002,30.216 215.042,30.216 L211.562,30.216 L211.562,21.72 Z M213.434,25.116 L214.79,25.116 C214.934001,25.116 215.075999,25.1000002 215.216,25.068 C215.356001,25.0359998 215.481999,24.9840004 215.594,24.912 C215.706001,24.8399996 215.796,24.7440006 215.864,24.624 C215.932,24.5039994 215.966,24.3600008 215.966,24.192 C215.966,24.0159991 215.928,23.8700006 215.852,23.754 C215.776,23.6379994 215.678001,23.5480003 215.558,23.484 C215.437999,23.4199997 215.302001,23.3740001 215.15,23.346 C214.997999,23.3179999 214.850001,23.304 214.706,23.304 L213.434,23.304 L213.434,25.116 Z M213.434,28.632 L215.114,28.632 C215.258001,28.632 215.403999,28.6160002 215.552,28.584 C215.700001,28.5519998 215.833999,28.4960004 215.954,28.416 C216.074001,28.3359996 216.172,28.2320006 216.248,28.104 C216.324,27.9759994 216.362,27.8200009 216.362,27.636 C216.362,27.435999 216.312,27.2740006 216.212,27.15 C216.111999,27.0259994 215.986001,26.9320003 215.834,26.868 C215.681999,26.8039997 215.518001,26.7600001 215.342,26.736 C215.165999,26.7119999 215.002001,26.7 214.85,26.7 L213.434,26.7 L213.434,28.632 Z M224.63,29.208 C224.341999,29.5760018 223.978002,29.859999 223.538,30.06 C223.097998,30.260001 222.642002,30.36 222.17,30.36 C221.721998,30.36 221.300002,30.2880007 220.904,30.144 C220.507998,29.9999993 220.164001,29.7940013 219.872,29.526 C219.579999,29.2579987 219.350001,28.9360019 219.182,28.56 C219.013999,28.1839981 218.93,27.7640023 218.93,27.3 C218.93,26.8359977 219.013999,26.4160019 219.182,26.04 C219.350001,25.6639981 219.579999,25.3420013 219.872,25.074 C220.164001,24.8059987 220.507998,24.6000007 220.904,24.456 C221.300002,24.3119993 221.721998,24.24 222.17,24.24 C222.586002,24.24 222.963998,24.3119993 223.304,24.456 C223.644002,24.6000007 223.931999,24.8059987 224.168,25.074 C224.404001,25.3420013 224.585999,25.6639981 224.714,26.04 C224.842001,26.4160019 224.906,26.8359977 224.906,27.3 L224.906,27.864 L220.73,27.864 C220.802,28.2080017 220.957999,28.481999 221.198,28.686 C221.438001,28.890001 221.733998,28.992 222.086,28.992 C222.382001,28.992 222.631999,28.9260007 222.836,28.794 C223.040001,28.6619993 223.217999,28.492001 223.37,28.284 L224.63,29.208 Z M223.106,26.64 C223.114,26.3359985 223.014001,26.0760011 222.806,25.86 C222.597999,25.6439989 222.330002,25.536 222.002,25.536 C221.801999,25.536 221.626001,25.5679997 221.474,25.632 C221.321999,25.6960003 221.192001,25.7779995 221.084,25.878 C220.975999,25.9780005 220.892,26.0939993 220.832,26.226 C220.772,26.3580007 220.738,26.4959993 220.73,26.64 L223.106,26.64 Z M226.622,25.824 L225.434,25.824 L225.434,24.384 L226.622,24.384 L226.622,23.352 C226.622,23.0319984 226.65,22.7300014 226.706,22.446 C226.762,22.1619986 226.869999,21.9120011 227.03,21.696 C227.190001,21.4799989 227.419998,21.3100006 227.72,21.186 C228.020001,21.0619994 228.413998,21 228.902,21 C229.086001,21 229.265999,21.0079999 229.442,21.024 C229.618001,21.0400001 229.789999,21.0679998 229.958,21.108 L229.874,22.632 C229.769999,22.5919998 229.674,22.5620001 229.586,22.542 C229.498,22.5219999 229.398001,22.512 229.286,22.512 C228.997999,22.512 228.782001,22.5739994 228.638,22.698 C228.493999,22.8220006 228.422,23.0759981 228.422,23.46 L228.422,24.384 L229.754,24.384 L229.754,25.824 L228.422,25.824 L228.422,30.216 L226.622,30.216 L226.622,25.824 Z M230.222,27.3 C230.222,26.8359977 230.305999,26.4160019 230.474,26.04 C230.642001,25.6639981 230.871999,25.3420013 231.164,25.074 C231.456001,24.8059987 231.799998,24.6000007 232.196,24.456 C232.592002,24.3119993 233.013998,24.24 233.462,24.24 C233.910002,24.24 234.331998,24.3119993 234.728,24.456 C235.124002,24.6000007 235.467999,24.8059987 235.76,25.074 C236.052001,25.3420013 236.281999,25.6639981 236.45,26.04 C236.618001,26.4160019 236.702,26.8359977 236.702,27.3 C236.702,27.7640023 236.618001,28.1839981 236.45,28.56 C236.281999,28.9360019 236.052001,29.2579987 235.76,29.526 C235.467999,29.7940013 235.124002,29.9999993 234.728,30.144 C234.331998,30.2880007 233.910002,30.36 233.462,30.36 C233.013998,30.36 232.592002,30.2880007 232.196,30.144 C231.799998,29.9999993 231.456001,29.7940013 231.164,29.526 C230.871999,29.2579987 230.642001,28.9360019 230.474,28.56 C230.305999,28.1839981 230.222,27.7640023 230.222,27.3 Z M232.022,27.3 C232.022,27.7400022 232.147999,28.0959986 232.4,28.368 C232.652001,28.6400014 233.005998,28.776 233.462,28.776 C233.918002,28.776 234.271999,28.6400014 234.524,28.368 C234.776001,28.0959986 234.902,27.7400022 234.902,27.3 C234.902,26.8599978 234.776001,26.5040014 234.524,26.232 C234.271999,25.9599986 233.918002,25.824 233.462,25.824 C233.005998,25.824 232.652001,25.9599986 232.4,26.232 C232.147999,26.5040014 232.022,26.8599978 232.022,27.3 Z M237.758,24.384 L239.558,24.384 L239.558,25.32 L239.582,25.32 C239.774001,24.9599982 240.001999,24.6900009 240.266,24.51 C240.530001,24.3299991 240.861998,24.24 241.262,24.24 C241.366001,24.24 241.469999,24.244 241.574,24.252 C241.678001,24.26 241.774,24.2759999 241.862,24.3 L241.862,25.944 C241.733999,25.9039998 241.608001,25.8740001 241.484,25.854 C241.359999,25.8339999 241.230001,25.824 241.094,25.824 C240.749998,25.824 240.478001,25.8719995 240.278,25.968 C240.077999,26.0640005 239.924001,26.1979991 239.816,26.37 C239.707999,26.5420009 239.638,26.7479988 239.606,26.988 C239.574,27.2280012 239.558,27.4919986 239.558,27.78 L239.558,30.216 L237.758,30.216 L237.758,24.384 Z M248.162,29.208 C247.873999,29.5760018 247.510002,29.859999 247.07,30.06 C246.629998,30.260001 246.174002,30.36 245.702,30.36 C245.253998,30.36 244.832002,30.2880007 244.436,30.144 C244.039998,29.9999993 243.696001,29.7940013 243.404,29.526 C243.111999,29.2579987 242.882001,28.9360019 242.714,28.56 C242.545999,28.1839981 242.462,27.7640023 242.462,27.3 C242.462,26.8359977 242.545999,26.4160019 242.714,26.04 C242.882001,25.6639981 243.111999,25.3420013 243.404,25.074 C243.696001,24.8059987 244.039998,24.6000007 244.436,24.456 C244.832002,24.3119993 245.253998,24.24 245.702,24.24 C246.118002,24.24 246.495998,24.3119993 246.836,24.456 C247.176002,24.6000007 247.463999,24.8059987 247.7,25.074 C247.936001,25.3420013 248.117999,25.6639981 248.246,26.04 C248.374001,26.4160019 248.438,26.8359977 248.438,27.3 L248.438,27.864 L244.262,27.864 C244.334,28.2080017 244.489999,28.481999 244.73,28.686 C244.970001,28.890001 245.265998,28.992 245.618,28.992 C245.914001,28.992 246.163999,28.9260007 246.368,28.794 C246.572001,28.6619993 246.749999,28.492001 246.902,28.284 L248.162,29.208 Z M246.638,26.64 C246.646,26.3359985 246.546001,26.0760011 246.338,25.86 C246.129999,25.6439989 245.862002,25.536 245.534,25.536 C245.333999,25.536 245.158001,25.5679997 245.006,25.632 C244.853999,25.6960003 244.724001,25.7779995 244.616,25.878 C244.507999,25.9780005 244.424,26.0939993 244.364,26.226 C244.304,26.3580007 244.27,26.4959993 244.262,26.64 L246.638,26.64 Z" id="Before-Copy-2" fill="#5C7CFA"></path>
            <path d="M398.744,20.504 L400.292,20.504 L403.988,29 L401.876,29 L401.144,27.2 L397.844,27.2 L397.136,29 L395.072,29 L398.744,20.504 Z M399.464,22.976 L398.432,25.616 L400.508,25.616 L399.464,22.976 Z M405.236,24.608 L404.048,24.608 L404.048,23.168 L405.236,23.168 L405.236,22.136 C405.236,21.8159984 405.264,21.5140014 405.32,21.23 C405.376,20.9459986 405.483999,20.6960011 405.644,20.48 C405.804001,20.2639989 406.033998,20.0940006 406.334,19.97 C406.634002,19.8459994 407.027998,19.784 407.516,19.784 C407.700001,19.784 407.879999,19.7919999 408.056,19.808 C408.232001,19.8240001 408.403999,19.8519998 408.572,19.892 L408.488,21.416 C408.383999,21.3759998 408.288,21.3460001 408.2,21.326 C408.112,21.3059999 408.012001,21.296 407.9,21.296 C407.611999,21.296 407.396001,21.3579994 407.252,21.482 C407.107999,21.6060006 407.036,21.8599981 407.036,22.244 L407.036,23.168 L408.368,23.168 L408.368,24.608 L407.036,24.608 L407.036,29 L405.236,29 L405.236,24.608 Z M413.024,24.608 L411.44,24.608 L411.44,26.552 C411.44,26.7120008 411.448,26.8579993 411.464,26.99 C411.48,27.1220007 411.516,27.2359995 411.572,27.332 C411.628,27.4280005 411.713999,27.5019997 411.83,27.554 C411.946001,27.6060003 412.099999,27.632 412.292,27.632 C412.388,27.632 412.513999,27.6220001 412.67,27.602 C412.826001,27.5819999 412.944,27.5360004 413.024,27.464 L413.024,28.964 C412.823999,29.0360004 412.616001,29.0839999 412.4,29.108 C412.183999,29.1320001 411.972001,29.144 411.764,29.144 C411.459998,29.144 411.180001,29.1120003 410.924,29.048 C410.667999,28.9839997 410.444001,28.8820007 410.252,28.742 C410.059999,28.6019993 409.910001,28.4200011 409.802,28.196 C409.693999,27.9719989 409.64,27.7000016 409.64,27.38 L409.64,24.608 L408.488,24.608 L408.488,23.168 L409.64,23.168 L409.64,21.44 L411.44,21.44 L411.44,23.168 L413.024,23.168 L413.024,24.608 Z M419.456,27.992 C419.167999,28.3600018 418.804002,28.643999 418.364,28.844 C417.923998,29.044001 417.468002,29.144 416.996,29.144 C416.547998,29.144 416.126002,29.0720007 415.73,28.928 C415.333998,28.7839993 414.990001,28.5780013 414.698,28.31 C414.405999,28.0419987 414.176001,27.7200019 414.008,27.344 C413.839999,26.9679981 413.756,26.5480023 413.756,26.084 C413.756,25.6199977 413.839999,25.2000019 414.008,24.824 C414.176001,24.4479981 414.405999,24.1260013 414.698,23.858 C414.990001,23.5899987 415.333998,23.3840007 415.73,23.24 C416.126002,23.0959993 416.547998,23.024 416.996,23.024 C417.412002,23.024 417.789998,23.0959993 418.13,23.24 C418.470002,23.3840007 418.757999,23.5899987 418.994,23.858 C419.230001,24.1260013 419.411999,24.4479981 419.54,24.824 C419.668001,25.2000019 419.732,25.6199977 419.732,26.084 L419.732,26.648 L415.556,26.648 C415.628,26.9920017 415.783999,27.265999 416.024,27.47 C416.264001,27.674001 416.559998,27.776 416.912,27.776 C417.208001,27.776 417.457999,27.7100007 417.662,27.578 C417.866001,27.4459993 418.043999,27.276001 418.196,27.068 L419.456,27.992 Z M417.932,25.424 C417.94,25.1199985 417.840001,24.8600011 417.632,24.644 C417.423999,24.4279989 417.156002,24.32 416.828,24.32 C416.627999,24.32 416.452001,24.3519997 416.3,24.416 C416.147999,24.4800003 416.018001,24.5619995 415.91,24.662 C415.801999,24.7620005 415.718,24.8779993 415.658,25.01 C415.598,25.1420007 415.564,25.2799993 415.556,25.424 L417.932,25.424 Z M420.824,23.168 L422.624,23.168 L422.624,24.104 L422.648,24.104 C422.840001,23.7439982 423.067999,23.4740009 423.332,23.294 C423.596001,23.1139991 423.927998,23.024 424.328,23.024 C424.432001,23.024 424.535999,23.028 424.64,23.036 C424.744001,23.044 424.84,23.0599999 424.928,23.084 L424.928,24.728 C424.799999,24.6879998 424.674001,24.6580001 424.55,24.638 C424.425999,24.6179999 424.296001,24.608 424.16,24.608 C423.815998,24.608 423.544001,24.6559995 423.344,24.752 C423.143999,24.8480005 422.990001,24.9819991 422.882,25.154 C422.773999,25.3260009 422.704,25.5319988 422.672,25.772 C422.64,26.0120012 422.624,26.2759986 422.624,26.564 L422.624,29 L420.824,29 L420.824,23.168 Z" id="After" fill="#5C7CFA"></path>
            <path d="M488.744,20.504 L490.292,20.504 L493.988,29 L491.876,29 L491.144,27.2 L487.844,27.2 L487.136,29 L485.072,29 L488.744,20.504 Z M489.464,22.976 L488.432,25.616 L490.508,25.616 L489.464,22.976 Z M495.236,24.608 L494.048,24.608 L494.048,23.168 L495.236,23.168 L495.236,22.136 C495.236,21.8159984 495.264,21.5140014 495.32,21.23 C495.376,20.9459986 495.483999,20.6960011 495.644,20.48 C495.804001,20.2639989 496.033998,20.0940006 496.334,19.97 C496.634002,19.8459994 497.027998,19.784 497.516,19.784 C497.700001,19.784 497.879999,19.7919999 498.056,19.808 C498.232001,19.8240001 498.403999,19.8519998 498.572,19.892 L498.488,21.416 C498.383999,21.3759998 498.288,21.3460001 498.2,21.326 C498.112,21.3059999 498.012001,21.296 497.9,21.296 C497.611999,21.296 497.396001,21.3579994 497.252,21.482 C497.107999,21.6060006 497.036,21.8599981 497.036,22.244 L497.036,23.168 L498.368,23.168 L498.368,24.608 L497.036,24.608 L497.036,29 L495.236,29 L495.236,24.608 Z M503.024,24.608 L501.44,24.608 L501.44,26.552 C501.44,26.7120008 501.448,26.8579993 501.464,26.99 C501.48,27.1220007 501.516,27.2359995 501.572,27.332 C501.628,27.4280005 501.713999,27.5019997 501.83,27.554 C501.946001,27.6060003 502.099999,27.632 502.292,27.632 C502.388,27.632 502.513999,27.6220001 502.67,27.602 C502.826001,27.5819999 502.944,27.5360004 503.024,27.464 L503.024,28.964 C502.823999,29.0360004 502.616001,29.0839999 502.4,29.108 C502.183999,29.1320001 501.972001,29.144 501.764,29.144 C501.459998,29.144 501.180001,29.1120003 500.924,29.048 C500.667999,28.9839997 500.444001,28.8820007 500.252,28.742 C500.059999,28.6019993 499.910001,28.4200011 499.802,28.196 C499.693999,27.9719989 499.64,27.7000016 499.64,27.38 L499.64,24.608 L498.488,24.608 L498.488,23.168 L499.64,23.168 L499.64,21.44 L501.44,21.44 L501.44,23.168 L503.024,23.168 L503.024,24.608 Z M509.456,27.992 C509.167999,28.3600018 508.804002,28.643999 508.364,28.844 C507.923998,29.044001 507.468002,29.144 506.996,29.144 C506.547998,29.144 506.126002,29.0720007 505.73,28.928 C505.333998,28.7839993 504.990001,28.5780013 504.698,28.31 C504.405999,28.0419987 504.176001,27.7200019 504.008,27.344 C503.839999,26.9679981 503.756,26.5480023 503.756,26.084 C503.756,25.6199977 503.839999,25.2000019 504.008,24.824 C504.176001,24.4479981 504.405999,24.1260013 504.698,23.858 C504.990001,23.5899987 505.333998,23.3840007 505.73,23.24 C506.126002,23.0959993 506.547998,23.024 506.996,23.024 C507.412002,23.024 507.789998,23.0959993 508.13,23.24 C508.470002,23.3840007 508.757999,23.5899987 508.994,23.858 C509.230001,24.1260013 509.411999,24.4479981 509.54,24.824 C509.668001,25.2000019 509.732,25.6199977 509.732,26.084 L509.732,26.648 L505.556,26.648 C505.628,26.9920017 505.783999,27.265999 506.024,27.47 C506.264001,27.674001 506.559998,27.776 506.912,27.776 C507.208001,27.776 507.457999,27.7100007 507.662,27.578 C507.866001,27.4459993 508.043999,27.276001 508.196,27.068 L509.456,27.992 Z M507.932,25.424 C507.94,25.1199985 507.840001,24.8600011 507.632,24.644 C507.423999,24.4279989 507.156002,24.32 506.828,24.32 C506.627999,24.32 506.452001,24.3519997 506.3,24.416 C506.147999,24.4800003 506.018001,24.5619995 505.91,24.662 C505.801999,24.7620005 505.718,24.8779993 505.658,25.01 C505.598,25.1420007 505.564,25.2799993 505.556,25.424 L507.932,25.424 Z M510.824,23.168 L512.624,23.168 L512.624,24.104 L512.648,24.104 C512.840001,23.7439982 513.067999,23.4740009 513.332,23.294 C513.596001,23.1139991 513.927998,23.024 514.328,23.024 C514.432001,23.024 514.535999,23.028 514.64,23.036 C514.744001,23.044 514.84,23.0599999 514.928,23.084 L514.928,24.728 C514.799999,24.6879998 514.674001,24.6580001 514.55,24.638 C514.425999,24.6179999 514.296001,24.608 514.16,24.608 C513.815998,24.608 513.544001,24.6559995 513.344,24.752 C513.143999,24.8480005 512.990001,24.9819991 512.882,25.154 C512.773999,25.3260009 512.704,25.5319988 512.672,25.772 C512.64,26.0120012 512.624,26.2759986 512.624,26.564 L512.624,29 L510.824,29 L510.824,23.168 Z" id="After-Copy" fill="#5C7CFA"></path>
            <path d="M578.744,20.504 L580.292,20.504 L583.988,29 L581.876,29 L581.144,27.2 L577.844,27.2 L577.136,29 L575.072,29 L578.744,20.504 Z M579.464,22.976 L578.432,25.616 L580.508,25.616 L579.464,22.976 Z M585.236,24.608 L584.048,24.608 L584.048,23.168 L585.236,23.168 L585.236,22.136 C585.236,21.8159984 585.264,21.5140014 585.32,21.23 C585.376,20.9459986 585.483999,20.6960011 585.644,20.48 C585.804001,20.2639989 586.033999,20.0940006 586.334,19.97 C586.634002,19.8459994 587.027998,19.784 587.516,19.784 C587.700001,19.784 587.879999,19.7919999 588.056,19.808 C588.232001,19.8240001 588.403999,19.8519998 588.572,19.892 L588.488,21.416 C588.383999,21.3759998 588.288,21.3460001 588.2,21.326 C588.112,21.3059999 588.012001,21.296 587.9,21.296 C587.611999,21.296 587.396001,21.3579994 587.252,21.482 C587.107999,21.6060006 587.036,21.8599981 587.036,22.244 L587.036,23.168 L588.368,23.168 L588.368,24.608 L587.036,24.608 L587.036,29 L585.236,29 L585.236,24.608 Z M593.024,24.608 L591.44,24.608 L591.44,26.552 C591.44,26.7120008 591.448,26.8579993 591.464,26.99 C591.48,27.1220007 591.516,27.2359995 591.572,27.332 C591.628,27.4280005 591.713999,27.5019997 591.83,27.554 C591.946001,27.6060003 592.099999,27.632 592.292,27.632 C592.388,27.632 592.513999,27.6220001 592.67,27.602 C592.826001,27.5819999 592.944,27.5360004 593.024,27.464 L593.024,28.964 C592.823999,29.0360004 592.616001,29.0839999 592.4,29.108 C592.183999,29.1320001 591.972001,29.144 591.764,29.144 C591.459998,29.144 591.180001,29.1120003 590.924,29.048 C590.667999,28.9839997 590.444001,28.8820007 590.252,28.742 C590.059999,28.6019993 589.910001,28.4200011 589.802,28.196 C589.693999,27.9719989 589.64,27.7000016 589.64,27.38 L589.64,24.608 L588.488,24.608 L588.488,23.168 L589.64,23.168 L589.64,21.44 L591.44,21.44 L591.44,23.168 L593.024,23.168 L593.024,24.608 Z M599.456,27.992 C599.167999,28.3600018 598.804002,28.643999 598.364,28.844 C597.923998,29.044001 597.468002,29.144 596.996,29.144 C596.547998,29.144 596.126002,29.0720007 595.73,28.928 C595.333998,28.7839993 594.990001,28.5780013 594.698,28.31 C594.405999,28.0419987 594.176001,27.7200019 594.008,27.344 C593.839999,26.9679981 593.756,26.5480023 593.756,26.084 C593.756,25.6199977 593.839999,25.2000019 594.008,24.824 C594.176001,24.4479981 594.405999,24.1260013 594.698,23.858 C594.990001,23.5899987 595.333998,23.3840007 595.73,23.24 C596.126002,23.0959993 596.547998,23.024 596.996,23.024 C597.412002,23.024 597.789998,23.0959993 598.13,23.24 C598.470002,23.3840007 598.757999,23.5899987 598.994,23.858 C599.230001,24.1260013 599.411999,24.4479981 599.54,24.824 C599.668001,25.2000019 599.732,25.6199977 599.732,26.084 L599.732,26.648 L595.556,26.648 C595.628,26.9920017 595.783999,27.265999 596.024,27.47 C596.264001,27.674001 596.559998,27.776 596.912,27.776 C597.208001,27.776 597.457999,27.7100007 597.662,27.578 C597.866001,27.4459993 598.043999,27.276001 598.196,27.068 L599.456,27.992 Z M597.932,25.424 C597.94,25.1199985 597.840001,24.8600011 597.632,24.644 C597.423999,24.4279989 597.156002,24.32 596.828,24.32 C596.627999,24.32 596.452001,24.3519997 596.3,24.416 C596.147999,24.4800003 596.018001,24.5619995 595.91,24.662 C595.801999,24.7620005 595.718,24.8779993 595.658,25.01 C595.598,25.1420007 595.564,25.2799993 595.556,25.424 L597.932,25.424 Z M600.824,23.168 L602.624,23.168 L602.624,24.104 L602.648,24.104 C602.840001,23.7439982 603.067999,23.4740009 603.332,23.294 C603.596001,23.1139991 603.927998,23.024 604.328,23.024 C604.432001,23.024 604.535999,23.028 604.64,23.036 C604.744001,23.044 604.84,23.0599999 604.928,23.084 L604.928,24.728 C604.799999,24.6879998 604.674001,24.6580001 604.55,24.638 C604.425999,24.6179999 604.296001,24.608 604.16,24.608 C603.815998,24.608 603.544001,24.6559995 603.344,24.752 C603.143999,24.8480005 602.990001,24.9819991 602.882,25.154 C602.773999,25.3260009 602.704,25.5319988 602.672,25.772 C602.64,26.0120012 602.624,26.2759986 602.624,26.564 L602.624,29 L600.824,29 L600.824,23.168 Z" id="After-Copy-2" fill="#5C7CFA"></path>
            <path d="M680,20 C657.90861,20 640,37.90861 640,60 C640,82.09139 657.90861,100 680,100 L680,100" id="Oval-3" stroke="#5C7CFA" stroke-width="2" stroke-linecap="round"></path>
            <text id="Error?" font-family="Avenir-Black, Avenir" font-size="8" font-weight="700" fill="#5C7CFA">
                <tspan x="646" y="62">Error?</tspan>
            </text>
            <text id="Yes" font-family="Avenir-Black, Avenir" font-size="8" font-weight="700" fill="#FF6B6B">
                <tspan x="686" y="102">Yes</tspan>
            </text>
            <text id="No" font-family="Avenir-Black, Avenir" font-size="8" font-weight="700" fill="#20C997">
                <tspan x="686" y="22">No</tspan>
            </text>
            <path d="M704.5,20 L712.5,20" id="Line" stroke="#20C997" stroke-width="2" stroke-linecap="round"></path>
            <path d="M704.5,100 L712.5,100" id="Line-Copy" stroke="#FF6B6B" stroke-width="2" stroke-linecap="round"></path>
        </g>
    </g>
</svg>