<?xml version="1.0" encoding="UTF-8" standalone="no"?>
<svg width="651px" height="60px" viewBox="0 0 651 60" version="1.1" xmlns="http://www.w3.org/2000/svg" xmlns:xlink="http://www.w3.org/1999/xlink">
    <!-- Generator: Sketch 41 (35326) - http://www.bohemiancoding.com/sketch -->
    <title>Artboard</title>
    <desc>Created with Sketch.</desc>
    <defs></defs>
    <g id="Page-1" stroke="none" stroke-width="1" fill="none" fill-rule="evenodd">
        <g id="Artboard">
            <rect id="Rectangle" fill="#5C7CFA" x="0" y="37" width="270" height="6"></rect>
            <rect id="Rectangle-Copy-4" fill="#FF6B6B" x="270" y="37" width="100" height="6"></rect>
            <rect id="Rectangle-Copy-6" fill="#20C997" x="370" y="37" width="270" height="6"></rect>
            <g id="Group" transform="translate(10.000000, 20.000000)">
                <rect id="Rectangle-Copy" fill="#5C7CFA" x="0" y="0" width="80" height="40" rx="2"></rect>
                <polygon id="*" fill="#FFFFFF" points="41.04 18.76 43.66 17.9 44.26 19.8 41.64 20.64 43.3 22.92 41.64 24.14 39.96 21.84 38.34 24.04 36.72 22.82 38.4 20.64 35.74 19.72 36.38 17.82 39 18.76 39 16 41.04 16"></polygon>
            </g>
            <g id="Group-Copy" transform="translate(550.000000, 20.000000)">
                <rect id="Rectangle-Copy" fill="#20C997" x="0" y="0" width="80" height="40" rx="2"></rect>
                <polygon id="*" fill="#FFFFFF" points="41.04 18.76 43.66 17.9 44.26 19.8 41.64 20.64 43.3 22.92 41.64 24.14 39.96 21.84 38.34 24.04 36.72 22.82 38.4 20.64 35.74 19.72 36.38 17.82 39 18.76 39 16 41.04 16"></polygon>
            </g>
            <g id="Group-2" transform="translate(100.000000, 20.000000)">
                <rect id="Rectangle-Copy-5" fill="#5C7CFA" x="0" y="0" width="80" height="40" rx="2"></rect>
                <text id="create*" font-family="Avenir-Black, Avenir" font-size="10" font-weight="700" fill="#FFFFFF">
                    <tspan x="25" y="23">create*</tspan>
                </text>
            </g>
            <g id="Group-2-Copy" transform="translate(460.000000, 20.000000)">
                <rect id="Rectangle-Copy-5" fill="#20C997" x="0" y="0" width="80" height="40" rx="2"></rect>
                <text id="create*" font-family="Avenir-Black, Avenir" font-size="10" font-weight="700" fill="#FFFFFF">
                    <tspan x="22.5" y="23">create*</tspan>
                </text>
            </g>
            <g id="Group-3" transform="translate(190.000000, 20.000000)">
                <rect id="Rectangle-Copy-3" fill="#5C7CFA" x="0" y="0" width="80" height="40" rx="2"></rect>
                <text id="createUser" font-family="Avenir-Black, Avenir" font-size="10" font-weight="700" fill="#FFFFFF">
                    <tspan x="14" y="23">createUser</tspan>
                </text>
            </g>
            <g id="Group-3-Copy" transform="translate(370.000000, 20.000000)">
                <rect id="Rectangle-Copy-3" fill="#20C997" x="0" y="0" width="80" height="40" rx="2"></rect>
                <text id="createUser" font-family="Avenir-Black, Avenir" font-size="10" font-weight="700" fill="#FFFFFF">
                    <tspan x="14" y="23">createUser</tspan>
                </text>
            </g>
            <g id="Group-5" transform="translate(280.000000, 20.000000)">
                <rect id="Rectangle-Copy-3" fill="#FF6B6B" x="0" y="0" width="80" height="40" rx="2"></rect>
                <text id="resolve" font-family="Avenir-Black, Avenir" font-size="10" font-weight="700" fill="#FFFFFF">
                    <tspan x="22.5" y="23">resolve</tspan>
                </text>
            </g>
            <path d="M31.562,1.72 L34.73,1.72 C35.0980018,1.72 35.4679981,1.74599974 35.84,1.798 C36.2120019,1.85000026 36.5459985,1.95399922 36.842,2.11 C37.1380015,2.26600078 37.3779991,2.4839986 37.562,2.764 C37.7460009,3.0440014 37.838,3.41599768 37.838,3.88 C37.838,4.3600024 37.7040013,4.75799842 37.436,5.074 C37.1679987,5.39000158 36.8140022,5.61599932 36.374,5.752 L36.374,5.776 C36.6540014,5.8160002 36.9079989,5.89399942 37.136,6.01 C37.3640011,6.12600058 37.5599992,6.2739991 37.724,6.454 C37.8880008,6.6340009 38.0139996,6.8439988 38.102,7.084 C38.1900004,7.3240012 38.234,7.57999864 38.234,7.852 C38.234,8.30000224 38.138001,8.6739985 37.946,8.974 C37.753999,9.2740015 37.5060015,9.51599908 37.202,9.7 C36.8979985,9.88400092 36.5560019,10.0159996 36.176,10.096 C35.7959981,10.1760004 35.4180019,10.216 35.042,10.216 L31.562,10.216 L31.562,1.72 Z M33.434,5.116 L34.79,5.116 C34.9340007,5.116 35.0759993,5.10000016 35.216,5.068 C35.3560007,5.03599984 35.4819994,4.98400036 35.594,4.912 C35.7060006,4.83999964 35.7959997,4.7440006 35.864,4.624 C35.9320003,4.5039994 35.966,4.36000084 35.966,4.192 C35.966,4.01599912 35.9280004,3.87000058 35.852,3.754 C35.7759996,3.63799942 35.6780006,3.54800032 35.558,3.484 C35.4379994,3.41999968 35.3020008,3.37400014 35.15,3.346 C34.9979992,3.31799986 34.8500007,3.304 34.706,3.304 L33.434,3.304 L33.434,5.116 Z M33.434,8.632 L35.114,8.632 C35.2580007,8.632 35.4039993,8.61600016 35.552,8.584 C35.7000007,8.55199984 35.8339994,8.4960004 35.954,8.416 C36.0740006,8.3359996 36.1719996,8.23200064 36.248,8.104 C36.3240004,7.97599936 36.362,7.82000092 36.362,7.636 C36.362,7.435999 36.3120005,7.27400062 36.212,7.15 C36.1119995,7.02599938 35.9860008,6.93200032 35.834,6.868 C35.6819992,6.80399968 35.5180009,6.76000012 35.342,6.736 C35.1659991,6.71199988 35.0020008,6.7 34.85,6.7 L33.434,6.7 L33.434,8.632 Z M44.63,9.208 C44.3419986,9.57600184 43.9780022,9.859999 43.538,10.06 C43.0979978,10.260001 42.6420024,10.36 42.17,10.36 C41.7219978,10.36 41.300002,10.2880007 40.904,10.144 C40.507998,9.99999928 40.1640015,9.79400134 39.872,9.526 C39.5799985,9.25799866 39.3500008,8.93600188 39.182,8.56 C39.0139992,8.18399812 38.93,7.76400232 38.93,7.3 C38.93,6.83599768 39.0139992,6.41600188 39.182,6.04 C39.3500008,5.66399812 39.5799985,5.34200134 39.872,5.074 C40.1640015,4.80599866 40.507998,4.60000072 40.904,4.456 C41.300002,4.31199928 41.7219978,4.24 42.17,4.24 C42.5860021,4.24 42.9639983,4.31199928 43.304,4.456 C43.6440017,4.60000072 43.9319988,4.80599866 44.168,5.074 C44.4040012,5.34200134 44.5859994,5.66399812 44.714,6.04 C44.8420006,6.41600188 44.906,6.83599768 44.906,7.3 L44.906,7.864 L40.73,7.864 C40.8020004,8.20800172 40.9579988,8.48199898 41.198,8.686 C41.4380012,8.89000102 41.7339982,8.992 42.086,8.992 C42.3820015,8.992 42.631999,8.92600066 42.836,8.794 C43.040001,8.66199934 43.2179992,8.49200104 43.37,8.284 L44.63,9.208 Z M43.106,6.64 C43.114,6.33599848 43.014001,6.07600108 42.806,5.86 C42.597999,5.64399892 42.3300016,5.536 42.002,5.536 C41.801999,5.536 41.6260008,5.56799968 41.474,5.632 C41.3219992,5.69600032 41.1920005,5.7779995 41.084,5.878 C40.9759995,5.9780005 40.8920003,6.09399934 40.832,6.226 C40.7719997,6.35800066 40.738,6.49599928 40.73,6.64 L43.106,6.64 Z M46.622,5.824 L45.434,5.824 L45.434,4.384 L46.622,4.384 L46.622,3.352 C46.622,3.0319984 46.6499997,2.73000142 46.706,2.446 C46.7620003,2.16199858 46.8699992,1.91200108 47.03,1.696 C47.1900008,1.47999892 47.4199985,1.31000062 47.72,1.186 C48.0200015,1.06199938 48.4139976,1 48.902,1 C49.0860009,1 49.2659991,1.00799992 49.442,1.024 C49.6180009,1.04000008 49.7899992,1.0679998 49.958,1.108 L49.874,2.632 C49.7699995,2.5919998 49.6740004,2.5620001 49.586,2.542 C49.4979996,2.5219999 49.3980006,2.512 49.286,2.512 C48.9979986,2.512 48.7820007,2.57399938 48.638,2.698 C48.4939993,2.82200062 48.422,3.07599808 48.422,3.46 L48.422,4.384 L49.754,4.384 L49.754,5.824 L48.422,5.824 L48.422,10.216 L46.622,10.216 L46.622,5.824 Z M50.222,7.3 C50.222,6.83599768 50.3059992,6.41600188 50.474,6.04 C50.6420008,5.66399812 50.8719985,5.34200134 51.164,5.074 C51.4560015,4.80599866 51.799998,4.60000072 52.196,4.456 C52.592002,4.31199928 53.0139978,4.24 53.462,4.24 C53.9100022,4.24 54.331998,4.31199928 54.728,4.456 C55.124002,4.60000072 55.4679985,4.80599866 55.76,5.074 C56.0520015,5.34200134 56.2819992,5.66399812 56.45,6.04 C56.6180008,6.41600188 56.702,6.83599768 56.702,7.3 C56.702,7.76400232 56.6180008,8.18399812 56.45,8.56 C56.2819992,8.93600188 56.0520015,9.25799866 55.76,9.526 C55.4679985,9.79400134 55.124002,9.99999928 54.728,10.144 C54.331998,10.2880007 53.9100022,10.36 53.462,10.36 C53.0139978,10.36 52.592002,10.2880007 52.196,10.144 C51.799998,9.99999928 51.4560015,9.79400134 51.164,9.526 C50.8719985,9.25799866 50.6420008,8.93600188 50.474,8.56 C50.3059992,8.18399812 50.222,7.76400232 50.222,7.3 Z M52.022,7.3 C52.022,7.7400022 52.1479987,8.09599864 52.4,8.368 C52.6520013,8.64000136 53.0059977,8.776 53.462,8.776 C53.9180023,8.776 54.2719987,8.64000136 54.524,8.368 C54.7760013,8.09599864 54.902,7.7400022 54.902,7.3 C54.902,6.8599978 54.7760013,6.50400136 54.524,6.232 C54.2719987,5.95999864 53.9180023,5.824 53.462,5.824 C53.0059977,5.824 52.6520013,5.95999864 52.4,6.232 C52.1479987,6.50400136 52.022,6.8599978 52.022,7.3 Z M57.758,4.384 L59.558,4.384 L59.558,5.32 L59.582,5.32 C59.774001,4.9599982 60.0019987,4.6900009 60.266,4.51 C60.5300013,4.3299991 60.861998,4.24 61.262,4.24 C61.3660005,4.24 61.4699995,4.24399996 61.574,4.252 C61.6780005,4.26000004 61.7739996,4.27599988 61.862,4.3 L61.862,5.944 C61.7339994,5.9039998 61.6080006,5.8740001 61.484,5.854 C61.3599994,5.8339999 61.2300007,5.824 61.094,5.824 C60.7499983,5.824 60.478001,5.87199952 60.278,5.968 C60.077999,6.06400048 59.9240005,6.19799914 59.816,6.37 C59.7079995,6.54200086 59.6380002,6.7479988 59.606,6.988 C59.5739998,7.2280012 59.558,7.49199856 59.558,7.78 L59.558,10.216 L57.758,10.216 L57.758,4.384 Z M68.162,9.208 C67.8739986,9.57600184 67.5100022,9.859999 67.07,10.06 C66.6299978,10.260001 66.1740024,10.36 65.702,10.36 C65.2539978,10.36 64.832002,10.2880007 64.436,10.144 C64.039998,9.99999928 63.6960015,9.79400134 63.404,9.526 C63.1119985,9.25799866 62.8820008,8.93600188 62.714,8.56 C62.5459992,8.18399812 62.462,7.76400232 62.462,7.3 C62.462,6.83599768 62.5459992,6.41600188 62.714,6.04 C62.8820008,5.66399812 63.1119985,5.34200134 63.404,5.074 C63.6960015,4.80599866 64.039998,4.60000072 64.436,4.456 C64.832002,4.31199928 65.2539978,4.24 65.702,4.24 C66.1180021,4.24 66.4959983,4.31199928 66.836,4.456 C67.1760017,4.60000072 67.4639988,4.80599866 67.7,5.074 C67.9360012,5.34200134 68.1179994,5.66399812 68.246,6.04 C68.3740006,6.41600188 68.438,6.83599768 68.438,7.3 L68.438,7.864 L64.262,7.864 C64.3340004,8.20800172 64.4899988,8.48199898 64.73,8.686 C64.9700012,8.89000102 65.2659982,8.992 65.618,8.992 C65.9140015,8.992 66.163999,8.92600066 66.368,8.794 C66.572001,8.66199934 66.7499992,8.49200104 66.902,8.284 L68.162,9.208 Z M66.638,6.64 C66.646,6.33599848 66.546001,6.07600108 66.338,5.86 C66.129999,5.64399892 65.8620016,5.536 65.534,5.536 C65.333999,5.536 65.1580008,5.56799968 65.006,5.632 C64.8539992,5.69600032 64.7240005,5.7779995 64.616,5.878 C64.5079995,5.9780005 64.4240003,6.09399934 64.364,6.226 C64.3039997,6.35800066 64.27,6.49599928 64.262,6.64 L66.638,6.64 Z" id="Before" fill="#5C7CFA"></path>
            <path d="M121.562,1.72 L124.73,1.72 C125.098002,1.72 125.467998,1.74599974 125.84,1.798 C126.212002,1.85000026 126.545999,1.95399922 126.842,2.11 C127.138001,2.26600078 127.377999,2.4839986 127.562,2.764 C127.746001,3.0440014 127.838,3.41599768 127.838,3.88 C127.838,4.3600024 127.704001,4.75799842 127.436,5.074 C127.167999,5.39000158 126.814002,5.61599932 126.374,5.752 L126.374,5.776 C126.654001,5.8160002 126.907999,5.89399942 127.136,6.01 C127.364001,6.12600058 127.559999,6.2739991 127.724,6.454 C127.888001,6.6340009 128.014,6.8439988 128.102,7.084 C128.19,7.3240012 128.234,7.57999864 128.234,7.852 C128.234,8.30000224 128.138001,8.6739985 127.946,8.974 C127.753999,9.2740015 127.506002,9.51599908 127.202,9.7 C126.897998,9.88400092 126.556002,10.0159996 126.176,10.096 C125.795998,10.1760004 125.418002,10.216 125.042,10.216 L121.562,10.216 L121.562,1.72 Z M123.434,5.116 L124.79,5.116 C124.934001,5.116 125.075999,5.10000016 125.216,5.068 C125.356001,5.03599984 125.481999,4.98400036 125.594,4.912 C125.706001,4.83999964 125.796,4.7440006 125.864,4.624 C125.932,4.5039994 125.966,4.36000084 125.966,4.192 C125.966,4.01599912 125.928,3.87000058 125.852,3.754 C125.776,3.63799942 125.678001,3.54800032 125.558,3.484 C125.437999,3.41999968 125.302001,3.37400014 125.15,3.346 C124.997999,3.31799986 124.850001,3.304 124.706,3.304 L123.434,3.304 L123.434,5.116 Z M123.434,8.632 L125.114,8.632 C125.258001,8.632 125.403999,8.61600016 125.552,8.584 C125.700001,8.55199984 125.833999,8.4960004 125.954,8.416 C126.074001,8.3359996 126.172,8.23200064 126.248,8.104 C126.324,7.97599936 126.362,7.82000092 126.362,7.636 C126.362,7.435999 126.312,7.27400062 126.212,7.15 C126.111999,7.02599938 125.986001,6.93200032 125.834,6.868 C125.681999,6.80399968 125.518001,6.76000012 125.342,6.736 C125.165999,6.71199988 125.002001,6.7 124.85,6.7 L123.434,6.7 L123.434,8.632 Z M134.63,9.208 C134.341999,9.57600184 133.978002,9.859999 133.538,10.06 C133.097998,10.260001 132.642002,10.36 132.17,10.36 C131.721998,10.36 131.300002,10.2880007 130.904,10.144 C130.507998,9.99999928 130.164001,9.79400134 129.872,9.526 C129.579999,9.25799866 129.350001,8.93600188 129.182,8.56 C129.013999,8.18399812 128.93,7.76400232 128.93,7.3 C128.93,6.83599768 129.013999,6.41600188 129.182,6.04 C129.350001,5.66399812 129.579999,5.34200134 129.872,5.074 C130.164001,4.80599866 130.507998,4.60000072 130.904,4.456 C131.300002,4.31199928 131.721998,4.24 132.17,4.24 C132.586002,4.24 132.963998,4.31199928 133.304,4.456 C133.644002,4.60000072 133.931999,4.80599866 134.168,5.074 C134.404001,5.34200134 134.585999,5.66399812 134.714,6.04 C134.842001,6.41600188 134.906,6.83599768 134.906,7.3 L134.906,7.864 L130.73,7.864 C130.802,8.20800172 130.957999,8.48199898 131.198,8.686 C131.438001,8.89000102 131.733998,8.992 132.086,8.992 C132.382001,8.992 132.631999,8.92600066 132.836,8.794 C133.040001,8.66199934 133.217999,8.49200104 133.37,8.284 L134.63,9.208 Z M133.106,6.64 C133.114,6.33599848 133.014001,6.07600108 132.806,5.86 C132.597999,5.64399892 132.330002,5.536 132.002,5.536 C131.801999,5.536 131.626001,5.56799968 131.474,5.632 C131.321999,5.69600032 131.192001,5.7779995 131.084,5.878 C130.975999,5.9780005 130.892,6.09399934 130.832,6.226 C130.772,6.35800066 130.738,6.49599928 130.73,6.64 L133.106,6.64 Z M136.622,5.824 L135.434,5.824 L135.434,4.384 L136.622,4.384 L136.622,3.352 C136.622,3.0319984 136.65,2.73000142 136.706,2.446 C136.762,2.16199858 136.869999,1.91200108 137.03,1.696 C137.190001,1.47999892 137.419998,1.31000062 137.72,1.186 C138.020001,1.06199938 138.413998,1 138.902,1 C139.086001,1 139.265999,1.00799992 139.442,1.024 C139.618001,1.04000008 139.789999,1.0679998 139.958,1.108 L139.874,2.632 C139.769999,2.5919998 139.674,2.5620001 139.586,2.542 C139.498,2.5219999 139.398001,2.512 139.286,2.512 C138.997999,2.512 138.782001,2.57399938 138.638,2.698 C138.493999,2.82200062 138.422,3.07599808 138.422,3.46 L138.422,4.384 L139.754,4.384 L139.754,5.824 L138.422,5.824 L138.422,10.216 L136.622,10.216 L136.622,5.824 Z M140.222,7.3 C140.222,6.83599768 140.305999,6.41600188 140.474,6.04 C140.642001,5.66399812 140.871999,5.34200134 141.164,5.074 C141.456001,4.80599866 141.799998,4.60000072 142.196,4.456 C142.592002,4.31199928 143.013998,4.24 143.462,4.24 C143.910002,4.24 144.331998,4.31199928 144.728,4.456 C145.124002,4.60000072 145.467999,4.80599866 145.76,5.074 C146.052001,5.34200134 146.281999,5.66399812 146.45,6.04 C146.618001,6.41600188 146.702,6.83599768 146.702,7.3 C146.702,7.76400232 146.618001,8.18399812 146.45,8.56 C146.281999,8.93600188 146.052001,9.25799866 145.76,9.526 C145.467999,9.79400134 145.124002,9.99999928 144.728,10.144 C144.331998,10.2880007 143.910002,10.36 143.462,10.36 C143.013998,10.36 142.592002,10.2880007 142.196,10.144 C141.799998,9.99999928 141.456001,9.79400134 141.164,9.526 C140.871999,9.25799866 140.642001,8.93600188 140.474,8.56 C140.305999,8.18399812 140.222,7.76400232 140.222,7.3 Z M142.022,7.3 C142.022,7.7400022 142.147999,8.09599864 142.4,8.368 C142.652001,8.64000136 143.005998,8.776 143.462,8.776 C143.918002,8.776 144.271999,8.64000136 144.524,8.368 C144.776001,8.09599864 144.902,7.7400022 144.902,7.3 C144.902,6.8599978 144.776001,6.50400136 144.524,6.232 C144.271999,5.95999864 143.918002,5.824 143.462,5.824 C143.005998,5.824 142.652001,5.95999864 142.4,6.232 C142.147999,6.50400136 142.022,6.8599978 142.022,7.3 Z M147.758,4.384 L149.558,4.384 L149.558,5.32 L149.582,5.32 C149.774001,4.9599982 150.001999,4.6900009 150.266,4.51 C150.530001,4.3299991 150.861998,4.24 151.262,4.24 C151.366001,4.24 151.469999,4.24399996 151.574,4.252 C151.678001,4.26000004 151.774,4.27599988 151.862,4.3 L151.862,5.944 C151.733999,5.9039998 151.608001,5.8740001 151.484,5.854 C151.359999,5.8339999 151.230001,5.824 151.094,5.824 C150.749998,5.824 150.478001,5.87199952 150.278,5.968 C150.077999,6.06400048 149.924001,6.19799914 149.816,6.37 C149.707999,6.54200086 149.638,6.7479988 149.606,6.988 C149.574,7.2280012 149.558,7.49199856 149.558,7.78 L149.558,10.216 L147.758,10.216 L147.758,4.384 Z M158.162,9.208 C157.873999,9.57600184 157.510002,9.859999 157.07,10.06 C156.629998,10.260001 156.174002,10.36 155.702,10.36 C155.253998,10.36 154.832002,10.2880007 154.436,10.144 C154.039998,9.99999928 153.696001,9.79400134 153.404,9.526 C153.111999,9.25799866 152.882001,8.93600188 152.714,8.56 C152.545999,8.18399812 152.462,7.76400232 152.462,7.3 C152.462,6.83599768 152.545999,6.41600188 152.714,6.04 C152.882001,5.66399812 153.111999,5.34200134 153.404,5.074 C153.696001,4.80599866 154.039998,4.60000072 154.436,4.456 C154.832002,4.31199928 155.253998,4.24 155.702,4.24 C156.118002,4.24 156.495998,4.31199928 156.836,4.456 C157.176002,4.60000072 157.463999,4.80599866 157.7,5.074 C157.936001,5.34200134 158.117999,5.66399812 158.246,6.04 C158.374001,6.41600188 158.438,6.83599768 158.438,7.3 L158.438,7.864 L154.262,7.864 C154.334,8.20800172 154.489999,8.48199898 154.73,8.686 C154.970001,8.89000102 155.265998,8.992 155.618,8.992 C155.914001,8.992 156.163999,8.92600066 156.368,8.794 C156.572001,8.66199934 156.749999,8.49200104 156.902,8.284 L158.162,9.208 Z M156.638,6.64 C156.646,6.33599848 156.546001,6.07600108 156.338,5.86 C156.129999,5.64399892 155.862002,5.536 155.534,5.536 C155.333999,5.536 155.158001,5.56799968 155.006,5.632 C154.853999,5.69600032 154.724001,5.7779995 154.616,5.878 C154.507999,5.9780005 154.424,6.09399934 154.364,6.226 C154.304,6.35800066 154.27,6.49599928 154.262,6.64 L156.638,6.64 Z" id="Before-Copy" fill="#5C7CFA"></path>
            <path d="M211.562,1.72 L214.73,1.72 C215.098002,1.72 215.467998,1.74599974 215.84,1.798 C216.212002,1.85000026 216.545999,1.95399922 216.842,2.11 C217.138001,2.26600078 217.377999,2.4839986 217.562,2.764 C217.746001,3.0440014 217.838,3.41599768 217.838,3.88 C217.838,4.3600024 217.704001,4.75799842 217.436,5.074 C217.167999,5.39000158 216.814002,5.61599932 216.374,5.752 L216.374,5.776 C216.654001,5.8160002 216.907999,5.89399942 217.136,6.01 C217.364001,6.12600058 217.559999,6.2739991 217.724,6.454 C217.888001,6.6340009 218.014,6.8439988 218.102,7.084 C218.19,7.3240012 218.234,7.57999864 218.234,7.852 C218.234,8.30000224 218.138001,8.6739985 217.946,8.974 C217.753999,9.2740015 217.506002,9.51599908 217.202,9.7 C216.897998,9.88400092 216.556002,10.0159996 216.176,10.096 C215.795998,10.1760004 215.418002,10.216 215.042,10.216 L211.562,10.216 L211.562,1.72 Z M213.434,5.116 L214.79,5.116 C214.934001,5.116 215.075999,5.10000016 215.216,5.068 C215.356001,5.03599984 215.481999,4.98400036 215.594,4.912 C215.706001,4.83999964 215.796,4.7440006 215.864,4.624 C215.932,4.5039994 215.966,4.36000084 215.966,4.192 C215.966,4.01599912 215.928,3.87000058 215.852,3.754 C215.776,3.63799942 215.678001,3.54800032 215.558,3.484 C215.437999,3.41999968 215.302001,3.37400014 215.15,3.346 C214.997999,3.31799986 214.850001,3.304 214.706,3.304 L213.434,3.304 L213.434,5.116 Z M213.434,8.632 L215.114,8.632 C215.258001,8.632 215.403999,8.61600016 215.552,8.584 C215.700001,8.55199984 215.833999,8.4960004 215.954,8.416 C216.074001,8.3359996 216.172,8.23200064 216.248,8.104 C216.324,7.97599936 216.362,7.82000092 216.362,7.636 C216.362,7.435999 216.312,7.27400062 216.212,7.15 C216.111999,7.02599938 215.986001,6.93200032 215.834,6.868 C215.681999,6.80399968 215.518001,6.76000012 215.342,6.736 C215.165999,6.71199988 215.002001,6.7 214.85,6.7 L213.434,6.7 L213.434,8.632 Z M224.63,9.208 C224.341999,9.57600184 223.978002,9.859999 223.538,10.06 C223.097998,10.260001 222.642002,10.36 222.17,10.36 C221.721998,10.36 221.300002,10.2880007 220.904,10.144 C220.507998,9.99999928 220.164001,9.79400134 219.872,9.526 C219.579999,9.25799866 219.350001,8.93600188 219.182,8.56 C219.013999,8.18399812 218.93,7.76400232 218.93,7.3 C218.93,6.83599768 219.013999,6.41600188 219.182,6.04 C219.350001,5.66399812 219.579999,5.34200134 219.872,5.074 C220.164001,4.80599866 220.507998,4.60000072 220.904,4.456 C221.300002,4.31199928 221.721998,4.24 222.17,4.24 C222.586002,4.24 222.963998,4.31199928 223.304,4.456 C223.644002,4.60000072 223.931999,4.80599866 224.168,5.074 C224.404001,5.34200134 224.585999,5.66399812 224.714,6.04 C224.842001,6.41600188 224.906,6.83599768 224.906,7.3 L224.906,7.864 L220.73,7.864 C220.802,8.20800172 220.957999,8.48199898 221.198,8.686 C221.438001,8.89000102 221.733998,8.992 222.086,8.992 C222.382001,8.992 222.631999,8.92600066 222.836,8.794 C223.040001,8.66199934 223.217999,8.49200104 223.37,8.284 L224.63,9.208 Z M223.106,6.64 C223.114,6.33599848 223.014001,6.07600108 222.806,5.86 C222.597999,5.64399892 222.330002,5.536 222.002,5.536 C221.801999,5.536 221.626001,5.56799968 221.474,5.632 C221.321999,5.69600032 221.192001,5.7779995 221.084,5.878 C220.975999,5.9780005 220.892,6.09399934 220.832,6.226 C220.772,6.35800066 220.738,6.49599928 220.73,6.64 L223.106,6.64 Z M226.622,5.824 L225.434,5.824 L225.434,4.384 L226.622,4.384 L226.622,3.352 C226.622,3.0319984 226.65,2.73000142 226.706,2.446 C226.762,2.16199858 226.869999,1.91200108 227.03,1.696 C227.190001,1.47999892 227.419998,1.31000062 227.72,1.186 C228.020001,1.06199938 228.413998,1 228.902,1 C229.086001,1 229.265999,1.00799992 229.442,1.024 C229.618001,1.04000008 229.789999,1.0679998 229.958,1.108 L229.874,2.632 C229.769999,2.5919998 229.674,2.5620001 229.586,2.542 C229.498,2.5219999 229.398001,2.512 229.286,2.512 C228.997999,2.512 228.782001,2.57399938 228.638,2.698 C228.493999,2.82200062 228.422,3.07599808 228.422,3.46 L228.422,4.384 L229.754,4.384 L229.754,5.824 L228.422,5.824 L228.422,10.216 L226.622,10.216 L226.622,5.824 Z M230.222,7.3 C230.222,6.83599768 230.305999,6.41600188 230.474,6.04 C230.642001,5.66399812 230.871999,5.34200134 231.164,5.074 C231.456001,4.80599866 231.799998,4.60000072 232.196,4.456 C232.592002,4.31199928 233.013998,4.24 233.462,4.24 C233.910002,4.24 234.331998,4.31199928 234.728,4.456 C235.124002,4.60000072 235.467999,4.80599866 235.76,5.074 C236.052001,5.34200134 236.281999,5.66399812 236.45,6.04 C236.618001,6.41600188 236.702,6.83599768 236.702,7.3 C236.702,7.76400232 236.618001,8.18399812 236.45,8.56 C236.281999,8.93600188 236.052001,9.25799866 235.76,9.526 C235.467999,9.79400134 235.124002,9.99999928 234.728,10.144 C234.331998,10.2880007 233.910002,10.36 233.462,10.36 C233.013998,10.36 232.592002,10.2880007 232.196,10.144 C231.799998,9.99999928 231.456001,9.79400134 231.164,9.526 C230.871999,9.25799866 230.642001,8.93600188 230.474,8.56 C230.305999,8.18399812 230.222,7.76400232 230.222,7.3 Z M232.022,7.3 C232.022,7.7400022 232.147999,8.09599864 232.4,8.368 C232.652001,8.64000136 233.005998,8.776 233.462,8.776 C233.918002,8.776 234.271999,8.64000136 234.524,8.368 C234.776001,8.09599864 234.902,7.7400022 234.902,7.3 C234.902,6.8599978 234.776001,6.50400136 234.524,6.232 C234.271999,5.95999864 233.918002,5.824 233.462,5.824 C233.005998,5.824 232.652001,5.95999864 232.4,6.232 C232.147999,6.50400136 232.022,6.8599978 232.022,7.3 Z M237.758,4.384 L239.558,4.384 L239.558,5.32 L239.582,5.32 C239.774001,4.9599982 240.001999,4.6900009 240.266,4.51 C240.530001,4.3299991 240.861998,4.24 241.262,4.24 C241.366001,4.24 241.469999,4.24399996 241.574,4.252 C241.678001,4.26000004 241.774,4.27599988 241.862,4.3 L241.862,5.944 C241.733999,5.9039998 241.608001,5.8740001 241.484,5.854 C241.359999,5.8339999 241.230001,5.824 241.094,5.824 C240.749998,5.824 240.478001,5.87199952 240.278,5.968 C240.077999,6.06400048 239.924001,6.19799914 239.816,6.37 C239.707999,6.54200086 239.638,6.7479988 239.606,6.988 C239.574,7.2280012 239.558,7.49199856 239.558,7.78 L239.558,10.216 L237.758,10.216 L237.758,4.384 Z M248.162,9.208 C247.873999,9.57600184 247.510002,9.859999 247.07,10.06 C246.629998,10.260001 246.174002,10.36 245.702,10.36 C245.253998,10.36 244.832002,10.2880007 244.436,10.144 C244.039998,9.99999928 243.696001,9.79400134 243.404,9.526 C243.111999,9.25799866 242.882001,8.93600188 242.714,8.56 C242.545999,8.18399812 242.462,7.76400232 242.462,7.3 C242.462,6.83599768 242.545999,6.41600188 242.714,6.04 C242.882001,5.66399812 243.111999,5.34200134 243.404,5.074 C243.696001,4.80599866 244.039998,4.60000072 244.436,4.456 C244.832002,4.31199928 245.253998,4.24 245.702,4.24 C246.118002,4.24 246.495998,4.31199928 246.836,4.456 C247.176002,4.60000072 247.463999,4.80599866 247.7,5.074 C247.936001,5.34200134 248.117999,5.66399812 248.246,6.04 C248.374001,6.41600188 248.438,6.83599768 248.438,7.3 L248.438,7.864 L244.262,7.864 C244.334,8.20800172 244.489999,8.48199898 244.73,8.686 C244.970001,8.89000102 245.265998,8.992 245.618,8.992 C245.914001,8.992 246.163999,8.92600066 246.368,8.794 C246.572001,8.66199934 246.749999,8.49200104 246.902,8.284 L248.162,9.208 Z M246.638,6.64 C246.646,6.33599848 246.546001,6.07600108 246.338,5.86 C246.129999,5.64399892 245.862002,5.536 245.534,5.536 C245.333999,5.536 245.158001,5.56799968 245.006,5.632 C244.853999,5.69600032 244.724001,5.7779995 244.616,5.878 C244.507999,5.9780005 244.424,6.09399934 244.364,6.226 C244.304,6.35800066 244.27,6.49599928 244.262,6.64 L246.638,6.64 Z" id="Before-Copy-2" fill="#5C7CFA"></path>
            <path d="M398.744,0.504 L400.292,0.504 L403.988,9 L401.876,9 L401.144,7.2 L397.844,7.2 L397.136,9 L395.072,9 L398.744,0.504 Z M399.464,2.976 L398.432,5.616 L400.508,5.616 L399.464,2.976 Z M405.236,4.608 L404.048,4.608 L404.048,3.168 L405.236,3.168 L405.236,2.136 C405.236,1.8159984 405.264,1.51400142 405.32,1.23 C405.376,0.94599858 405.483999,0.69600108 405.644,0.48 C405.804001,0.26399892 406.033998,0.09400062 406.334,-0.03 C406.634002,-0.15400062 407.027998,-0.216 407.516,-0.216 C407.700001,-0.216 407.879999,-0.20800008 408.056,-0.192 C408.232001,-0.17599992 408.403999,-0.1480002 408.572,-0.108 L408.488,1.416 C408.383999,1.3759998 408.288,1.3460001 408.2,1.326 C408.112,1.3059999 408.012001,1.296 407.9,1.296 C407.611999,1.296 407.396001,1.35799938 407.252,1.482 C407.107999,1.60600062 407.036,1.85999808 407.036,2.244 L407.036,3.168 L408.368,3.168 L408.368,4.608 L407.036,4.608 L407.036,9 L405.236,9 L405.236,4.608 Z M413.024,4.608 L411.44,4.608 L411.44,6.552 C411.44,6.7120008 411.448,6.85799934 411.464,6.99 C411.48,7.12200066 411.516,7.23599952 411.572,7.332 C411.628,7.42800048 411.713999,7.50199974 411.83,7.554 C411.946001,7.60600026 412.099999,7.632 412.292,7.632 C412.388,7.632 412.513999,7.6220001 412.67,7.602 C412.826001,7.5819999 412.944,7.53600036 413.024,7.464 L413.024,8.964 C412.823999,9.03600036 412.616001,9.08399988 412.4,9.108 C412.183999,9.13200012 411.972001,9.144 411.764,9.144 C411.459998,9.144 411.180001,9.11200032 410.924,9.048 C410.667999,8.98399968 410.444001,8.8820007 410.252,8.742 C410.059999,8.6019993 409.910001,8.42000112 409.802,8.196 C409.693999,7.97199888 409.64,7.7000016 409.64,7.38 L409.64,4.608 L408.488,4.608 L408.488,3.168 L409.64,3.168 L409.64,1.44 L411.44,1.44 L411.44,3.168 L413.024,3.168 L413.024,4.608 Z M419.456,7.992 C419.167999,8.36000184 418.804002,8.643999 418.364,8.844 C417.923998,9.044001 417.468002,9.144 416.996,9.144 C416.547998,9.144 416.126002,9.07200072 415.73,8.928 C415.333998,8.78399928 414.990001,8.57800134 414.698,8.31 C414.405999,8.04199866 414.176001,7.72000188 414.008,7.344 C413.839999,6.96799812 413.756,6.54800232 413.756,6.084 C413.756,5.61999768 413.839999,5.20000188 414.008,4.824 C414.176001,4.44799812 414.405999,4.12600134 414.698,3.858 C414.990001,3.58999866 415.333998,3.38400072 415.73,3.24 C416.126002,3.09599928 416.547998,3.024 416.996,3.024 C417.412002,3.024 417.789998,3.09599928 418.13,3.24 C418.470002,3.38400072 418.757999,3.58999866 418.994,3.858 C419.230001,4.12600134 419.411999,4.44799812 419.54,4.824 C419.668001,5.20000188 419.732,5.61999768 419.732,6.084 L419.732,6.648 L415.556,6.648 C415.628,6.99200172 415.783999,7.26599898 416.024,7.47 C416.264001,7.67400102 416.559998,7.776 416.912,7.776 C417.208001,7.776 417.457999,7.71000066 417.662,7.578 C417.866001,7.44599934 418.043999,7.27600104 418.196,7.068 L419.456,7.992 Z M417.932,5.424 C417.94,5.11999848 417.840001,4.86000108 417.632,4.644 C417.423999,4.42799892 417.156002,4.32 416.828,4.32 C416.627999,4.32 416.452001,4.35199968 416.3,4.416 C416.147999,4.48000032 416.018001,4.5619995 415.91,4.662 C415.801999,4.7620005 415.718,4.87799934 415.658,5.01 C415.598,5.14200066 415.564,5.27999928 415.556,5.424 L417.932,5.424 Z M420.824,3.168 L422.624,3.168 L422.624,4.104 L422.648,4.104 C422.840001,3.7439982 423.067999,3.4740009 423.332,3.294 C423.596001,3.1139991 423.927998,3.024 424.328,3.024 C424.432001,3.024 424.535999,3.02799996 424.64,3.036 C424.744001,3.04400004 424.84,3.05999988 424.928,3.084 L424.928,4.728 C424.799999,4.6879998 424.674001,4.6580001 424.55,4.638 C424.425999,4.6179999 424.296001,4.608 424.16,4.608 C423.815998,4.608 423.544001,4.65599952 423.344,4.752 C423.143999,4.84800048 422.990001,4.98199914 422.882,5.154 C422.773999,5.32600086 422.704,5.5319988 422.672,5.772 C422.64,6.0120012 422.624,6.27599856 422.624,6.564 L422.624,9 L420.824,9 L420.824,3.168 Z" id="After" fill="#20C997"></path>
            <path d="M488.744,0.504 L490.292,0.504 L493.988,9 L491.876,9 L491.144,7.2 L487.844,7.2 L487.136,9 L485.072,9 L488.744,0.504 Z M489.464,2.976 L488.432,5.616 L490.508,5.616 L489.464,2.976 Z M495.236,4.608 L494.048,4.608 L494.048,3.168 L495.236,3.168 L495.236,2.136 C495.236,1.8159984 495.264,1.51400142 495.32,1.23 C495.376,0.94599858 495.483999,0.69600108 495.644,0.48 C495.804001,0.26399892 496.033998,0.09400062 496.334,-0.03 C496.634002,-0.15400062 497.027998,-0.216 497.516,-0.216 C497.700001,-0.216 497.879999,-0.20800008 498.056,-0.192 C498.232001,-0.17599992 498.403999,-0.1480002 498.572,-0.108 L498.488,1.416 C498.383999,1.3759998 498.288,1.3460001 498.2,1.326 C498.112,1.3059999 498.012001,1.296 497.9,1.296 C497.611999,1.296 497.396001,1.35799938 497.252,1.482 C497.107999,1.60600062 497.036,1.85999808 497.036,2.244 L497.036,3.168 L498.368,3.168 L498.368,4.608 L497.036,4.608 L497.036,9 L495.236,9 L495.236,4.608 Z M503.024,4.608 L501.44,4.608 L501.44,6.552 C501.44,6.7120008 501.448,6.85799934 501.464,6.99 C501.48,7.12200066 501.516,7.23599952 501.572,7.332 C501.628,7.42800048 501.713999,7.50199974 501.83,7.554 C501.946001,7.60600026 502.099999,7.632 502.292,7.632 C502.388,7.632 502.513999,7.6220001 502.67,7.602 C502.826001,7.5819999 502.944,7.53600036 503.024,7.464 L503.024,8.964 C502.823999,9.03600036 502.616001,9.08399988 502.4,9.108 C502.183999,9.13200012 501.972001,9.144 501.764,9.144 C501.459998,9.144 501.180001,9.11200032 500.924,9.048 C500.667999,8.98399968 500.444001,8.8820007 500.252,8.742 C500.059999,8.6019993 499.910001,8.42000112 499.802,8.196 C499.693999,7.97199888 499.64,7.7000016 499.64,7.38 L499.64,4.608 L498.488,4.608 L498.488,3.168 L499.64,3.168 L499.64,1.44 L501.44,1.44 L501.44,3.168 L503.024,3.168 L503.024,4.608 Z M509.456,7.992 C509.167999,8.36000184 508.804002,8.643999 508.364,8.844 C507.923998,9.044001 507.468002,9.144 506.996,9.144 C506.547998,9.144 506.126002,9.07200072 505.73,8.928 C505.333998,8.78399928 504.990001,8.57800134 504.698,8.31 C504.405999,8.04199866 504.176001,7.72000188 504.008,7.344 C503.839999,6.96799812 503.756,6.54800232 503.756,6.084 C503.756,5.61999768 503.839999,5.20000188 504.008,4.824 C504.176001,4.44799812 504.405999,4.12600134 504.698,3.858 C504.990001,3.58999866 505.333998,3.38400072 505.73,3.24 C506.126002,3.09599928 506.547998,3.024 506.996,3.024 C507.412002,3.024 507.789998,3.09599928 508.13,3.24 C508.470002,3.38400072 508.757999,3.58999866 508.994,3.858 C509.230001,4.12600134 509.411999,4.44799812 509.54,4.824 C509.668001,5.20000188 509.732,5.61999768 509.732,6.084 L509.732,6.648 L505.556,6.648 C505.628,6.99200172 505.783999,7.26599898 506.024,7.47 C506.264001,7.67400102 506.559998,7.776 506.912,7.776 C507.208001,7.776 507.457999,7.71000066 507.662,7.578 C507.866001,7.44599934 508.043999,7.27600104 508.196,7.068 L509.456,7.992 Z M507.932,5.424 C507.94,5.11999848 507.840001,4.86000108 507.632,4.644 C507.423999,4.42799892 507.156002,4.32 506.828,4.32 C506.627999,4.32 506.452001,4.35199968 506.3,4.416 C506.147999,4.48000032 506.018001,4.5619995 505.91,4.662 C505.801999,4.7620005 505.718,4.87799934 505.658,5.01 C505.598,5.14200066 505.564,5.27999928 505.556,5.424 L507.932,5.424 Z M510.824,3.168 L512.624,3.168 L512.624,4.104 L512.648,4.104 C512.840001,3.7439982 513.067999,3.4740009 513.332,3.294 C513.596001,3.1139991 513.927998,3.024 514.328,3.024 C514.432001,3.024 514.535999,3.02799996 514.64,3.036 C514.744001,3.04400004 514.84,3.05999988 514.928,3.084 L514.928,4.728 C514.799999,4.6879998 514.674001,4.6580001 514.55,4.638 C514.425999,4.6179999 514.296001,4.608 514.16,4.608 C513.815998,4.608 513.544001,4.65599952 513.344,4.752 C513.143999,4.84800048 512.990001,4.98199914 512.882,5.154 C512.773999,5.32600086 512.704,5.5319988 512.672,5.772 C512.64,6.0120012 512.624,6.27599856 512.624,6.564 L512.624,9 L510.824,9 L510.824,3.168 Z" id="After-Copy" fill="#20C997"></path>
            <path d="M578.744,0.504 L580.292,0.504 L583.988,9 L581.876,9 L581.144,7.2 L577.844,7.2 L577.136,9 L575.072,9 L578.744,0.504 Z M579.464,2.976 L578.432,5.616 L580.508,5.616 L579.464,2.976 Z M585.236,4.608 L584.048,4.608 L584.048,3.168 L585.236,3.168 L585.236,2.136 C585.236,1.8159984 585.264,1.51400142 585.32,1.23 C585.376,0.94599858 585.483999,0.69600108 585.644,0.48 C585.804001,0.26399892 586.033999,0.09400062 586.334,-0.03 C586.634002,-0.15400062 587.027998,-0.216 587.516,-0.216 C587.700001,-0.216 587.879999,-0.20800008 588.056,-0.192 C588.232001,-0.17599992 588.403999,-0.1480002 588.572,-0.108 L588.488,1.416 C588.383999,1.3759998 588.288,1.3460001 588.2,1.326 C588.112,1.3059999 588.012001,1.296 587.9,1.296 C587.611999,1.296 587.396001,1.35799938 587.252,1.482 C587.107999,1.60600062 587.036,1.85999808 587.036,2.244 L587.036,3.168 L588.368,3.168 L588.368,4.608 L587.036,4.608 L587.036,9 L585.236,9 L585.236,4.608 Z M593.024,4.608 L591.44,4.608 L591.44,6.552 C591.44,6.7120008 591.448,6.85799934 591.464,6.99 C591.48,7.12200066 591.516,7.23599952 591.572,7.332 C591.628,7.42800048 591.713999,7.50199974 591.83,7.554 C591.946001,7.60600026 592.099999,7.632 592.292,7.632 C592.388,7.632 592.513999,7.6220001 592.67,7.602 C592.826001,7.5819999 592.944,7.53600036 593.024,7.464 L593.024,8.964 C592.823999,9.03600036 592.616001,9.08399988 592.4,9.108 C592.183999,9.13200012 591.972001,9.144 591.764,9.144 C591.459998,9.144 591.180001,9.11200032 590.924,9.048 C590.667999,8.98399968 590.444001,8.8820007 590.252,8.742 C590.059999,8.6019993 589.910001,8.42000112 589.802,8.196 C589.693999,7.97199888 589.64,7.7000016 589.64,7.38 L589.64,4.608 L588.488,4.608 L588.488,3.168 L589.64,3.168 L589.64,1.44 L591.44,1.44 L591.44,3.168 L593.024,3.168 L593.024,4.608 Z M599.456,7.992 C599.167999,8.36000184 598.804002,8.643999 598.364,8.844 C597.923998,9.044001 597.468002,9.144 596.996,9.144 C596.547998,9.144 596.126002,9.07200072 595.73,8.928 C595.333998,8.78399928 594.990001,8.57800134 594.698,8.31 C594.405999,8.04199866 594.176001,7.72000188 594.008,7.344 C593.839999,6.96799812 593.756,6.54800232 593.756,6.084 C593.756,5.61999768 593.839999,5.20000188 594.008,4.824 C594.176001,4.44799812 594.405999,4.12600134 594.698,3.858 C594.990001,3.58999866 595.333998,3.38400072 595.73,3.24 C596.126002,3.09599928 596.547998,3.024 596.996,3.024 C597.412002,3.024 597.789998,3.09599928 598.13,3.24 C598.470002,3.38400072 598.757999,3.58999866 598.994,3.858 C599.230001,4.12600134 599.411999,4.44799812 599.54,4.824 C599.668001,5.20000188 599.732,5.61999768 599.732,6.084 L599.732,6.648 L595.556,6.648 C595.628,6.99200172 595.783999,7.26599898 596.024,7.47 C596.264001,7.67400102 596.559998,7.776 596.912,7.776 C597.208001,7.776 597.457999,7.71000066 597.662,7.578 C597.866001,7.44599934 598.043999,7.27600104 598.196,7.068 L599.456,7.992 Z M597.932,5.424 C597.94,5.11999848 597.840001,4.86000108 597.632,4.644 C597.423999,4.42799892 597.156002,4.32 596.828,4.32 C596.627999,4.32 596.452001,4.35199968 596.3,4.416 C596.147999,4.48000032 596.018001,4.5619995 595.91,4.662 C595.801999,4.7620005 595.718,4.87799934 595.658,5.01 C595.598,5.14200066 595.564,5.27999928 595.556,5.424 L597.932,5.424 Z M600.824,3.168 L602.624,3.168 L602.624,4.104 L602.648,4.104 C602.840001,3.7439982 603.067999,3.4740009 603.332,3.294 C603.596001,3.1139991 603.927998,3.024 604.328,3.024 C604.432001,3.024 604.535999,3.02799996 604.64,3.036 C604.744001,3.04400004 604.84,3.05999988 604.928,3.084 L604.928,4.728 C604.799999,4.6879998 604.674001,4.6580001 604.55,4.638 C604.425999,4.6179999 604.296001,4.608 604.16,4.608 C603.815998,4.608 603.544001,4.65599952 603.344,4.752 C603.143999,4.84800048 602.990001,4.98199914 602.882,5.154 C602.773999,5.32600086 602.704,5.5319988 602.672,5.772 C602.64,6.0120012 602.624,6.27599856 602.624,6.564 L602.624,9 L600.824,9 L600.824,3.168 Z" id="After-Copy-2" fill="#20C997"></path>
            <rect id="Rectangle-Copy-2" fill="#5C7CFA" transform="translate(3.000000, 40.000000) rotate(90.000000) translate(-3.000000, -40.000000) " x="-7" y="37" width="20" height="6"></rect>
            <polygon id="Triangle" fill="#20C997" transform="translate(645.500000, 40.000000) rotate(90.000000) translate(-645.500000, -40.000000) " points="645.5 34.5 651.5 45.5 639.5 45.5"></polygon>
        </g>
    </g>
</svg>