<?xml version="1.0" encoding="UTF-8" standalone="no"?>
<svg width="620px" height="60px" viewBox="0 0 620 60" version="1.1" xmlns="http://www.w3.org/2000/svg" xmlns:xlink="http://www.w3.org/1999/xlink">
    <!-- Generator: Sketch 41 (35326) - http://www.bohemiancoding.com/sketch -->
    <title>Artboard</title>
    <desc>Created with Sketch.</desc>
    <defs></defs>
    <g id="Page-1" stroke="none" stroke-width="1" fill="none" fill-rule="evenodd">
        <g id="Artboard">
            <g id="Group" transform="translate(0.000000, 20.000000)">
                <rect id="Rectangle-Copy" fill="#5C7CFA" x="0" y="0" width="80" height="40" rx="2"></rect>
                <polygon id="*" fill="#FFFFFF" points="41.04 18.76 43.66 17.9 44.26 19.8 41.64 20.64 43.3 22.92 41.64 24.14 39.96 21.84 38.34 24.04 36.72 22.82 38.4 20.64 35.74 19.72 36.38 17.82 39 18.76 39 16 41.04 16"></polygon>
            </g>
            <g id="Group-Copy" transform="translate(540.000000, 20.000000)">
                <rect id="Rectangle-Copy" fill="#20C997" x="0" y="0" width="80" height="40" rx="2"></rect>
                <polygon id="*" fill="#FFFFFF" points="41.04 18.76 43.66 17.9 44.26 19.8 41.64 20.64 43.3 22.92 41.64 24.14 39.96 21.84 38.34 24.04 36.72 22.82 38.4 20.64 35.74 19.72 36.38 17.82 39 18.76 39 16 41.04 16"></polygon>
            </g>
            <g id="Group-2" transform="translate(90.000000, 20.000000)">
                <rect id="Rectangle-Copy-5" fill="#5C7CFA" x="0" y="0" width="80" height="40" rx="2"></rect>
                <text id="create*" font-family="Avenir-Black, Avenir" font-size="10" font-weight="700" fill="#FFFFFF">
                    <tspan x="25" y="23">create*</tspan>
                </text>
            </g>
            <g id="Group-2-Copy" transform="translate(450.000000, 20.000000)">
                <rect id="Rectangle-Copy-5" fill="#20C997" x="0" y="0" width="80" height="40" rx="2"></rect>
                <text id="create*" font-family="Avenir-Black, Avenir" font-size="10" font-weight="700" fill="#FFFFFF">
                    <tspan x="22.5" y="23">create*</tspan>
                </text>
            </g>
            <g id="Group-3" transform="translate(180.000000, 20.000000)">
                <rect id="Rectangle-Copy-3" fill="#5C7CFA" x="0" y="0" width="80" height="40" rx="2"></rect>
                <text id="createUser" font-family="Avenir-Black, Avenir" font-size="10" font-weight="700" fill="#FFFFFF">
                    <tspan x="14" y="23">createUser</tspan>
                </text>
            </g>
            <g id="Group-3-Copy" transform="translate(360.000000, 20.000000)">
                <rect id="Rectangle-Copy-3" fill="#20C997" x="0" y="0" width="80" height="40" rx="2"></rect>
                <text id="createUser" font-family="Avenir-Black, Avenir" font-size="10" font-weight="700" fill="#FFFFFF">
                    <tspan x="14" y="23">createUser</tspan>
                </text>
            </g>
            <g id="Group-5" transform="translate(270.000000, 20.000000)">
                <rect id="Rectangle-Copy-3" fill="#FF6B6B" x="0" y="0" width="80" height="40" rx="2"></rect>
                <text id="resolve" font-family="Avenir-Black, Avenir" font-size="10" font-weight="700" fill="#FFFFFF">
                    <tspan x="22.5" y="23">resolve</tspan>
                </text>
            </g>
            <path d="M21.562,1.72 L24.73,1.72 C25.0980018,1.72 25.4679981,1.74599974 25.84,1.798 C26.2120019,1.85000026 26.5459985,1.95399922 26.842,2.11 C27.1380015,2.26600078 27.3779991,2.4839986 27.562,2.764 C27.7460009,3.0440014 27.838,3.41599768 27.838,3.88 C27.838,4.3600024 27.7040013,4.75799842 27.436,5.074 C27.1679987,5.39000158 26.8140022,5.61599932 26.374,5.752 L26.374,5.776 C26.6540014,5.8160002 26.9079989,5.89399942 27.136,6.01 C27.3640011,6.12600058 27.5599992,6.2739991 27.724,6.454 C27.8880008,6.6340009 28.0139996,6.8439988 28.102,7.084 C28.1900004,7.3240012 28.234,7.57999864 28.234,7.852 C28.234,8.30000224 28.138001,8.6739985 27.946,8.974 C27.753999,9.2740015 27.5060015,9.51599908 27.202,9.7 C26.8979985,9.88400092 26.5560019,10.0159996 26.176,10.096 C25.7959981,10.1760004 25.4180019,10.216 25.042,10.216 L21.562,10.216 L21.562,1.72 Z M23.434,5.116 L24.79,5.116 C24.9340007,5.116 25.0759993,5.10000016 25.216,5.068 C25.3560007,5.03599984 25.4819994,4.98400036 25.594,4.912 C25.7060006,4.83999964 25.7959997,4.7440006 25.864,4.624 C25.9320003,4.5039994 25.966,4.36000084 25.966,4.192 C25.966,4.01599912 25.9280004,3.87000058 25.852,3.754 C25.7759996,3.63799942 25.6780006,3.54800032 25.558,3.484 C25.4379994,3.41999968 25.3020008,3.37400014 25.15,3.346 C24.9979992,3.31799986 24.8500007,3.304 24.706,3.304 L23.434,3.304 L23.434,5.116 Z M23.434,8.632 L25.114,8.632 C25.2580007,8.632 25.4039993,8.61600016 25.552,8.584 C25.7000007,8.55199984 25.8339994,8.4960004 25.954,8.416 C26.0740006,8.3359996 26.1719996,8.23200064 26.248,8.104 C26.3240004,7.97599936 26.362,7.82000092 26.362,7.636 C26.362,7.435999 26.3120005,7.27400062 26.212,7.15 C26.1119995,7.02599938 25.9860008,6.93200032 25.834,6.868 C25.6819992,6.80399968 25.5180009,6.76000012 25.342,6.736 C25.1659991,6.71199988 25.0020008,6.7 24.85,6.7 L23.434,6.7 L23.434,8.632 Z M34.63,9.208 C34.3419986,9.57600184 33.9780022,9.859999 33.538,10.06 C33.0979978,10.260001 32.6420024,10.36 32.17,10.36 C31.7219978,10.36 31.300002,10.2880007 30.904,10.144 C30.507998,9.99999928 30.1640015,9.79400134 29.872,9.526 C29.5799985,9.25799866 29.3500008,8.93600188 29.182,8.56 C29.0139992,8.18399812 28.93,7.76400232 28.93,7.3 C28.93,6.83599768 29.0139992,6.41600188 29.182,6.04 C29.3500008,5.66399812 29.5799985,5.34200134 29.872,5.074 C30.1640015,4.80599866 30.507998,4.60000072 30.904,4.456 C31.300002,4.31199928 31.7219978,4.24 32.17,4.24 C32.5860021,4.24 32.9639983,4.31199928 33.304,4.456 C33.6440017,4.60000072 33.9319988,4.80599866 34.168,5.074 C34.4040012,5.34200134 34.5859994,5.66399812 34.714,6.04 C34.8420006,6.41600188 34.906,6.83599768 34.906,7.3 L34.906,7.864 L30.73,7.864 C30.8020004,8.20800172 30.9579988,8.48199898 31.198,8.686 C31.4380012,8.89000102 31.7339982,8.992 32.086,8.992 C32.3820015,8.992 32.631999,8.92600066 32.836,8.794 C33.040001,8.66199934 33.2179992,8.49200104 33.37,8.284 L34.63,9.208 Z M33.106,6.64 C33.114,6.33599848 33.014001,6.07600108 32.806,5.86 C32.597999,5.64399892 32.3300016,5.536 32.002,5.536 C31.801999,5.536 31.6260008,5.56799968 31.474,5.632 C31.3219992,5.69600032 31.1920005,5.7779995 31.084,5.878 C30.9759995,5.9780005 30.8920003,6.09399934 30.832,6.226 C30.7719997,6.35800066 30.738,6.49599928 30.73,6.64 L33.106,6.64 Z M36.622,5.824 L35.434,5.824 L35.434,4.384 L36.622,4.384 L36.622,3.352 C36.622,3.0319984 36.6499997,2.73000142 36.706,2.446 C36.7620003,2.16199858 36.8699992,1.91200108 37.03,1.696 C37.1900008,1.47999892 37.4199985,1.31000062 37.72,1.186 C38.0200015,1.06199938 38.4139976,1 38.902,1 C39.0860009,1 39.2659991,1.00799992 39.442,1.024 C39.6180009,1.04000008 39.7899992,1.0679998 39.958,1.108 L39.874,2.632 C39.7699995,2.5919998 39.6740004,2.5620001 39.586,2.542 C39.4979996,2.5219999 39.3980006,2.512 39.286,2.512 C38.9979986,2.512 38.7820007,2.57399938 38.638,2.698 C38.4939993,2.82200062 38.422,3.07599808 38.422,3.46 L38.422,4.384 L39.754,4.384 L39.754,5.824 L38.422,5.824 L38.422,10.216 L36.622,10.216 L36.622,5.824 Z M40.222,7.3 C40.222,6.83599768 40.3059992,6.41600188 40.474,6.04 C40.6420008,5.66399812 40.8719985,5.34200134 41.164,5.074 C41.4560015,4.80599866 41.799998,4.60000072 42.196,4.456 C42.592002,4.31199928 43.0139978,4.24 43.462,4.24 C43.9100022,4.24 44.331998,4.31199928 44.728,4.456 C45.124002,4.60000072 45.4679985,4.80599866 45.76,5.074 C46.0520015,5.34200134 46.2819992,5.66399812 46.45,6.04 C46.6180008,6.41600188 46.702,6.83599768 46.702,7.3 C46.702,7.76400232 46.6180008,8.18399812 46.45,8.56 C46.2819992,8.93600188 46.0520015,9.25799866 45.76,9.526 C45.4679985,9.79400134 45.124002,9.99999928 44.728,10.144 C44.331998,10.2880007 43.9100022,10.36 43.462,10.36 C43.0139978,10.36 42.592002,10.2880007 42.196,10.144 C41.799998,9.99999928 41.4560015,9.79400134 41.164,9.526 C40.8719985,9.25799866 40.6420008,8.93600188 40.474,8.56 C40.3059992,8.18399812 40.222,7.76400232 40.222,7.3 Z M42.022,7.3 C42.022,7.7400022 42.1479987,8.09599864 42.4,8.368 C42.6520013,8.64000136 43.0059977,8.776 43.462,8.776 C43.9180023,8.776 44.2719987,8.64000136 44.524,8.368 C44.7760013,8.09599864 44.902,7.7400022 44.902,7.3 C44.902,6.8599978 44.7760013,6.50400136 44.524,6.232 C44.2719987,5.95999864 43.9180023,5.824 43.462,5.824 C43.0059977,5.824 42.6520013,5.95999864 42.4,6.232 C42.1479987,6.50400136 42.022,6.8599978 42.022,7.3 Z M47.758,4.384 L49.558,4.384 L49.558,5.32 L49.582,5.32 C49.774001,4.9599982 50.0019987,4.6900009 50.266,4.51 C50.5300013,4.3299991 50.861998,4.24 51.262,4.24 C51.3660005,4.24 51.4699995,4.24399996 51.574,4.252 C51.6780005,4.26000004 51.7739996,4.27599988 51.862,4.3 L51.862,5.944 C51.7339994,5.9039998 51.6080006,5.8740001 51.484,5.854 C51.3599994,5.8339999 51.2300007,5.824 51.094,5.824 C50.7499983,5.824 50.478001,5.87199952 50.278,5.968 C50.077999,6.06400048 49.9240005,6.19799914 49.816,6.37 C49.7079995,6.54200086 49.6380002,6.7479988 49.606,6.988 C49.5739998,7.2280012 49.558,7.49199856 49.558,7.78 L49.558,10.216 L47.758,10.216 L47.758,4.384 Z M58.162,9.208 C57.8739986,9.57600184 57.5100022,9.859999 57.07,10.06 C56.6299978,10.260001 56.1740024,10.36 55.702,10.36 C55.2539978,10.36 54.832002,10.2880007 54.436,10.144 C54.039998,9.99999928 53.6960015,9.79400134 53.404,9.526 C53.1119985,9.25799866 52.8820008,8.93600188 52.714,8.56 C52.5459992,8.18399812 52.462,7.76400232 52.462,7.3 C52.462,6.83599768 52.5459992,6.41600188 52.714,6.04 C52.8820008,5.66399812 53.1119985,5.34200134 53.404,5.074 C53.6960015,4.80599866 54.039998,4.60000072 54.436,4.456 C54.832002,4.31199928 55.2539978,4.24 55.702,4.24 C56.1180021,4.24 56.4959983,4.31199928 56.836,4.456 C57.1760017,4.60000072 57.4639988,4.80599866 57.7,5.074 C57.9360012,5.34200134 58.1179994,5.66399812 58.246,6.04 C58.3740006,6.41600188 58.438,6.83599768 58.438,7.3 L58.438,7.864 L54.262,7.864 C54.3340004,8.20800172 54.4899988,8.48199898 54.73,8.686 C54.9700012,8.89000102 55.2659982,8.992 55.618,8.992 C55.9140015,8.992 56.163999,8.92600066 56.368,8.794 C56.572001,8.66199934 56.7499992,8.49200104 56.902,8.284 L58.162,9.208 Z M56.638,6.64 C56.646,6.33599848 56.546001,6.07600108 56.338,5.86 C56.129999,5.64399892 55.8620016,5.536 55.534,5.536 C55.333999,5.536 55.1580008,5.56799968 55.006,5.632 C54.8539992,5.69600032 54.7240005,5.7779995 54.616,5.878 C54.5079995,5.9780005 54.4240003,6.09399934 54.364,6.226 C54.3039997,6.35800066 54.27,6.49599928 54.262,6.64 L56.638,6.64 Z" id="Before" fill="#5C7CFA"></path>
            <path d="M111.562,1.72 L114.73,1.72 C115.098002,1.72 115.467998,1.74599974 115.84,1.798 C116.212002,1.85000026 116.545999,1.95399922 116.842,2.11 C117.138001,2.26600078 117.377999,2.4839986 117.562,2.764 C117.746001,3.0440014 117.838,3.41599768 117.838,3.88 C117.838,4.3600024 117.704001,4.75799842 117.436,5.074 C117.167999,5.39000158 116.814002,5.61599932 116.374,5.752 L116.374,5.776 C116.654001,5.8160002 116.907999,5.89399942 117.136,6.01 C117.364001,6.12600058 117.559999,6.2739991 117.724,6.454 C117.888001,6.6340009 118.014,6.8439988 118.102,7.084 C118.19,7.3240012 118.234,7.57999864 118.234,7.852 C118.234,8.30000224 118.138001,8.6739985 117.946,8.974 C117.753999,9.2740015 117.506002,9.51599908 117.202,9.7 C116.897998,9.88400092 116.556002,10.0159996 116.176,10.096 C115.795998,10.1760004 115.418002,10.216 115.042,10.216 L111.562,10.216 L111.562,1.72 Z M113.434,5.116 L114.79,5.116 C114.934001,5.116 115.075999,5.10000016 115.216,5.068 C115.356001,5.03599984 115.481999,4.98400036 115.594,4.912 C115.706001,4.83999964 115.796,4.7440006 115.864,4.624 C115.932,4.5039994 115.966,4.36000084 115.966,4.192 C115.966,4.01599912 115.928,3.87000058 115.852,3.754 C115.776,3.63799942 115.678001,3.54800032 115.558,3.484 C115.437999,3.41999968 115.302001,3.37400014 115.15,3.346 C114.997999,3.31799986 114.850001,3.304 114.706,3.304 L113.434,3.304 L113.434,5.116 Z M113.434,8.632 L115.114,8.632 C115.258001,8.632 115.403999,8.61600016 115.552,8.584 C115.700001,8.55199984 115.833999,8.4960004 115.954,8.416 C116.074001,8.3359996 116.172,8.23200064 116.248,8.104 C116.324,7.97599936 116.362,7.82000092 116.362,7.636 C116.362,7.435999 116.312,7.27400062 116.212,7.15 C116.111999,7.02599938 115.986001,6.93200032 115.834,6.868 C115.681999,6.80399968 115.518001,6.76000012 115.342,6.736 C115.165999,6.71199988 115.002001,6.7 114.85,6.7 L113.434,6.7 L113.434,8.632 Z M124.63,9.208 C124.341999,9.57600184 123.978002,9.859999 123.538,10.06 C123.097998,10.260001 122.642002,10.36 122.17,10.36 C121.721998,10.36 121.300002,10.2880007 120.904,10.144 C120.507998,9.99999928 120.164001,9.79400134 119.872,9.526 C119.579999,9.25799866 119.350001,8.93600188 119.182,8.56 C119.013999,8.18399812 118.93,7.76400232 118.93,7.3 C118.93,6.83599768 119.013999,6.41600188 119.182,6.04 C119.350001,5.66399812 119.579999,5.34200134 119.872,5.074 C120.164001,4.80599866 120.507998,4.60000072 120.904,4.456 C121.300002,4.31199928 121.721998,4.24 122.17,4.24 C122.586002,4.24 122.963998,4.31199928 123.304,4.456 C123.644002,4.60000072 123.931999,4.80599866 124.168,5.074 C124.404001,5.34200134 124.585999,5.66399812 124.714,6.04 C124.842001,6.41600188 124.906,6.83599768 124.906,7.3 L124.906,7.864 L120.73,7.864 C120.802,8.20800172 120.957999,8.48199898 121.198,8.686 C121.438001,8.89000102 121.733998,8.992 122.086,8.992 C122.382001,8.992 122.631999,8.92600066 122.836,8.794 C123.040001,8.66199934 123.217999,8.49200104 123.37,8.284 L124.63,9.208 Z M123.106,6.64 C123.114,6.33599848 123.014001,6.07600108 122.806,5.86 C122.597999,5.64399892 122.330002,5.536 122.002,5.536 C121.801999,5.536 121.626001,5.56799968 121.474,5.632 C121.321999,5.69600032 121.192001,5.7779995 121.084,5.878 C120.975999,5.9780005 120.892,6.09399934 120.832,6.226 C120.772,6.35800066 120.738,6.49599928 120.73,6.64 L123.106,6.64 Z M126.622,5.824 L125.434,5.824 L125.434,4.384 L126.622,4.384 L126.622,3.352 C126.622,3.0319984 126.65,2.73000142 126.706,2.446 C126.762,2.16199858 126.869999,1.91200108 127.03,1.696 C127.190001,1.47999892 127.419998,1.31000062 127.72,1.186 C128.020001,1.06199938 128.413998,1 128.902,1 C129.086001,1 129.265999,1.00799992 129.442,1.024 C129.618001,1.04000008 129.789999,1.0679998 129.958,1.108 L129.874,2.632 C129.769999,2.5919998 129.674,2.5620001 129.586,2.542 C129.498,2.5219999 129.398001,2.512 129.286,2.512 C128.997999,2.512 128.782001,2.57399938 128.638,2.698 C128.493999,2.82200062 128.422,3.07599808 128.422,3.46 L128.422,4.384 L129.754,4.384 L129.754,5.824 L128.422,5.824 L128.422,10.216 L126.622,10.216 L126.622,5.824 Z M130.222,7.3 C130.222,6.83599768 130.305999,6.41600188 130.474,6.04 C130.642001,5.66399812 130.871999,5.34200134 131.164,5.074 C131.456001,4.80599866 131.799998,4.60000072 132.196,4.456 C132.592002,4.31199928 133.013998,4.24 133.462,4.24 C133.910002,4.24 134.331998,4.31199928 134.728,4.456 C135.124002,4.60000072 135.467999,4.80599866 135.76,5.074 C136.052001,5.34200134 136.281999,5.66399812 136.45,6.04 C136.618001,6.41600188 136.702,6.83599768 136.702,7.3 C136.702,7.76400232 136.618001,8.18399812 136.45,8.56 C136.281999,8.93600188 136.052001,9.25799866 135.76,9.526 C135.467999,9.79400134 135.124002,9.99999928 134.728,10.144 C134.331998,10.2880007 133.910002,10.36 133.462,10.36 C133.013998,10.36 132.592002,10.2880007 132.196,10.144 C131.799998,9.99999928 131.456001,9.79400134 131.164,9.526 C130.871999,9.25799866 130.642001,8.93600188 130.474,8.56 C130.305999,8.18399812 130.222,7.76400232 130.222,7.3 Z M132.022,7.3 C132.022,7.7400022 132.147999,8.09599864 132.4,8.368 C132.652001,8.64000136 133.005998,8.776 133.462,8.776 C133.918002,8.776 134.271999,8.64000136 134.524,8.368 C134.776001,8.09599864 134.902,7.7400022 134.902,7.3 C134.902,6.8599978 134.776001,6.50400136 134.524,6.232 C134.271999,5.95999864 133.918002,5.824 133.462,5.824 C133.005998,5.824 132.652001,5.95999864 132.4,6.232 C132.147999,6.50400136 132.022,6.8599978 132.022,7.3 Z M137.758,4.384 L139.558,4.384 L139.558,5.32 L139.582,5.32 C139.774001,4.9599982 140.001999,4.6900009 140.266,4.51 C140.530001,4.3299991 140.861998,4.24 141.262,4.24 C141.366001,4.24 141.469999,4.24399996 141.574,4.252 C141.678001,4.26000004 141.774,4.27599988 141.862,4.3 L141.862,5.944 C141.733999,5.9039998 141.608001,5.8740001 141.484,5.854 C141.359999,5.8339999 141.230001,5.824 141.094,5.824 C140.749998,5.824 140.478001,5.87199952 140.278,5.968 C140.077999,6.06400048 139.924001,6.19799914 139.816,6.37 C139.707999,6.54200086 139.638,6.7479988 139.606,6.988 C139.574,7.2280012 139.558,7.49199856 139.558,7.78 L139.558,10.216 L137.758,10.216 L137.758,4.384 Z M148.162,9.208 C147.873999,9.57600184 147.510002,9.859999 147.07,10.06 C146.629998,10.260001 146.174002,10.36 145.702,10.36 C145.253998,10.36 144.832002,10.2880007 144.436,10.144 C144.039998,9.99999928 143.696001,9.79400134 143.404,9.526 C143.111999,9.25799866 142.882001,8.93600188 142.714,8.56 C142.545999,8.18399812 142.462,7.76400232 142.462,7.3 C142.462,6.83599768 142.545999,6.41600188 142.714,6.04 C142.882001,5.66399812 143.111999,5.34200134 143.404,5.074 C143.696001,4.80599866 144.039998,4.60000072 144.436,4.456 C144.832002,4.31199928 145.253998,4.24 145.702,4.24 C146.118002,4.24 146.495998,4.31199928 146.836,4.456 C147.176002,4.60000072 147.463999,4.80599866 147.7,5.074 C147.936001,5.34200134 148.117999,5.66399812 148.246,6.04 C148.374001,6.41600188 148.438,6.83599768 148.438,7.3 L148.438,7.864 L144.262,7.864 C144.334,8.20800172 144.489999,8.48199898 144.73,8.686 C144.970001,8.89000102 145.265998,8.992 145.618,8.992 C145.914001,8.992 146.163999,8.92600066 146.368,8.794 C146.572001,8.66199934 146.749999,8.49200104 146.902,8.284 L148.162,9.208 Z M146.638,6.64 C146.646,6.33599848 146.546001,6.07600108 146.338,5.86 C146.129999,5.64399892 145.862002,5.536 145.534,5.536 C145.333999,5.536 145.158001,5.56799968 145.006,5.632 C144.853999,5.69600032 144.724001,5.7779995 144.616,5.878 C144.507999,5.9780005 144.424,6.09399934 144.364,6.226 C144.304,6.35800066 144.27,6.49599928 144.262,6.64 L146.638,6.64 Z" id="Before-Copy" fill="#5C7CFA"></path>
            <path d="M201.562,1.72 L204.73,1.72 C205.098002,1.72 205.467998,1.74599974 205.84,1.798 C206.212002,1.85000026 206.545999,1.95399922 206.842,2.11 C207.138001,2.26600078 207.377999,2.4839986 207.562,2.764 C207.746001,3.0440014 207.838,3.41599768 207.838,3.88 C207.838,4.3600024 207.704001,4.75799842 207.436,5.074 C207.167999,5.39000158 206.814002,5.61599932 206.374,5.752 L206.374,5.776 C206.654001,5.8160002 206.907999,5.89399942 207.136,6.01 C207.364001,6.12600058 207.559999,6.2739991 207.724,6.454 C207.888001,6.6340009 208.014,6.8439988 208.102,7.084 C208.19,7.3240012 208.234,7.57999864 208.234,7.852 C208.234,8.30000224 208.138001,8.6739985 207.946,8.974 C207.753999,9.2740015 207.506002,9.51599908 207.202,9.7 C206.897998,9.88400092 206.556002,10.0159996 206.176,10.096 C205.795998,10.1760004 205.418002,10.216 205.042,10.216 L201.562,10.216 L201.562,1.72 Z M203.434,5.116 L204.79,5.116 C204.934001,5.116 205.075999,5.10000016 205.216,5.068 C205.356001,5.03599984 205.481999,4.98400036 205.594,4.912 C205.706001,4.83999964 205.796,4.7440006 205.864,4.624 C205.932,4.5039994 205.966,4.36000084 205.966,4.192 C205.966,4.01599912 205.928,3.87000058 205.852,3.754 C205.776,3.63799942 205.678001,3.54800032 205.558,3.484 C205.437999,3.41999968 205.302001,3.37400014 205.15,3.346 C204.997999,3.31799986 204.850001,3.304 204.706,3.304 L203.434,3.304 L203.434,5.116 Z M203.434,8.632 L205.114,8.632 C205.258001,8.632 205.403999,8.61600016 205.552,8.584 C205.700001,8.55199984 205.833999,8.4960004 205.954,8.416 C206.074001,8.3359996 206.172,8.23200064 206.248,8.104 C206.324,7.97599936 206.362,7.82000092 206.362,7.636 C206.362,7.435999 206.312001,7.27400062 206.212,7.15 C206.111999,7.02599938 205.986001,6.93200032 205.834,6.868 C205.681999,6.80399968 205.518001,6.76000012 205.342,6.736 C205.165999,6.71199988 205.002001,6.7 204.85,6.7 L203.434,6.7 L203.434,8.632 Z M214.63,9.208 C214.341999,9.57600184 213.978002,9.859999 213.538,10.06 C213.097998,10.260001 212.642002,10.36 212.17,10.36 C211.721998,10.36 211.300002,10.2880007 210.904,10.144 C210.507998,9.99999928 210.164001,9.79400134 209.872,9.526 C209.579999,9.25799866 209.350001,8.93600188 209.182,8.56 C209.013999,8.18399812 208.93,7.76400232 208.93,7.3 C208.93,6.83599768 209.013999,6.41600188 209.182,6.04 C209.350001,5.66399812 209.579999,5.34200134 209.872,5.074 C210.164001,4.80599866 210.507998,4.60000072 210.904,4.456 C211.300002,4.31199928 211.721998,4.24 212.17,4.24 C212.586002,4.24 212.963998,4.31199928 213.304,4.456 C213.644002,4.60000072 213.931999,4.80599866 214.168,5.074 C214.404001,5.34200134 214.585999,5.66399812 214.714,6.04 C214.842001,6.41600188 214.906,6.83599768 214.906,7.3 L214.906,7.864 L210.73,7.864 C210.802,8.20800172 210.957999,8.48199898 211.198,8.686 C211.438001,8.89000102 211.733998,8.992 212.086,8.992 C212.382001,8.992 212.631999,8.92600066 212.836,8.794 C213.040001,8.66199934 213.217999,8.49200104 213.37,8.284 L214.63,9.208 Z M213.106,6.64 C213.114,6.33599848 213.014001,6.07600108 212.806,5.86 C212.597999,5.64399892 212.330002,5.536 212.002,5.536 C211.801999,5.536 211.626001,5.56799968 211.474,5.632 C211.321999,5.69600032 211.192001,5.7779995 211.084,5.878 C210.975999,5.9780005 210.892,6.09399934 210.832,6.226 C210.772,6.35800066 210.738,6.49599928 210.73,6.64 L213.106,6.64 Z M216.622,5.824 L215.434,5.824 L215.434,4.384 L216.622,4.384 L216.622,3.352 C216.622,3.0319984 216.65,2.73000142 216.706,2.446 C216.762,2.16199858 216.869999,1.91200108 217.03,1.696 C217.190001,1.47999892 217.419998,1.31000062 217.72,1.186 C218.020002,1.06199938 218.413998,1 218.902,1 C219.086001,1 219.265999,1.00799992 219.442,1.024 C219.618001,1.04000008 219.789999,1.0679998 219.958,1.108 L219.874,2.632 C219.769999,2.5919998 219.674,2.5620001 219.586,2.542 C219.498,2.5219999 219.398001,2.512 219.286,2.512 C218.997999,2.512 218.782001,2.57399938 218.638,2.698 C218.493999,2.82200062 218.422,3.07599808 218.422,3.46 L218.422,4.384 L219.754,4.384 L219.754,5.824 L218.422,5.824 L218.422,10.216 L216.622,10.216 L216.622,5.824 Z M220.222,7.3 C220.222,6.83599768 220.305999,6.41600188 220.474,6.04 C220.642001,5.66399812 220.871999,5.34200134 221.164,5.074 C221.456001,4.80599866 221.799998,4.60000072 222.196,4.456 C222.592002,4.31199928 223.013998,4.24 223.462,4.24 C223.910002,4.24 224.331998,4.31199928 224.728,4.456 C225.124002,4.60000072 225.467999,4.80599866 225.76,5.074 C226.052001,5.34200134 226.281999,5.66399812 226.45,6.04 C226.618001,6.41600188 226.702,6.83599768 226.702,7.3 C226.702,7.76400232 226.618001,8.18399812 226.45,8.56 C226.281999,8.93600188 226.052001,9.25799866 225.76,9.526 C225.467999,9.79400134 225.124002,9.99999928 224.728,10.144 C224.331998,10.2880007 223.910002,10.36 223.462,10.36 C223.013998,10.36 222.592002,10.2880007 222.196,10.144 C221.799998,9.99999928 221.456001,9.79400134 221.164,9.526 C220.871999,9.25799866 220.642001,8.93600188 220.474,8.56 C220.305999,8.18399812 220.222,7.76400232 220.222,7.3 Z M222.022,7.3 C222.022,7.7400022 222.147999,8.09599864 222.4,8.368 C222.652001,8.64000136 223.005998,8.776 223.462,8.776 C223.918002,8.776 224.271999,8.64000136 224.524,8.368 C224.776001,8.09599864 224.902,7.7400022 224.902,7.3 C224.902,6.8599978 224.776001,6.50400136 224.524,6.232 C224.271999,5.95999864 223.918002,5.824 223.462,5.824 C223.005998,5.824 222.652001,5.95999864 222.4,6.232 C222.147999,6.50400136 222.022,6.8599978 222.022,7.3 Z M227.758,4.384 L229.558,4.384 L229.558,5.32 L229.582,5.32 C229.774001,4.9599982 230.001999,4.6900009 230.266,4.51 C230.530001,4.3299991 230.861998,4.24 231.262,4.24 C231.366001,4.24 231.469999,4.24399996 231.574,4.252 C231.678001,4.26000004 231.774,4.27599988 231.862,4.3 L231.862,5.944 C231.733999,5.9039998 231.608001,5.8740001 231.484,5.854 C231.359999,5.8339999 231.230001,5.824 231.094,5.824 C230.749998,5.824 230.478001,5.87199952 230.278,5.968 C230.077999,6.06400048 229.924001,6.19799914 229.816,6.37 C229.707999,6.54200086 229.638,6.7479988 229.606,6.988 C229.574,7.2280012 229.558,7.49199856 229.558,7.78 L229.558,10.216 L227.758,10.216 L227.758,4.384 Z M238.162,9.208 C237.873999,9.57600184 237.510002,9.859999 237.07,10.06 C236.629998,10.260001 236.174002,10.36 235.702,10.36 C235.253998,10.36 234.832002,10.2880007 234.436,10.144 C234.039998,9.99999928 233.696001,9.79400134 233.404,9.526 C233.111999,9.25799866 232.882001,8.93600188 232.714,8.56 C232.545999,8.18399812 232.462,7.76400232 232.462,7.3 C232.462,6.83599768 232.545999,6.41600188 232.714,6.04 C232.882001,5.66399812 233.111999,5.34200134 233.404,5.074 C233.696001,4.80599866 234.039998,4.60000072 234.436,4.456 C234.832002,4.31199928 235.253998,4.24 235.702,4.24 C236.118002,4.24 236.495998,4.31199928 236.836,4.456 C237.176002,4.60000072 237.463999,4.80599866 237.7,5.074 C237.936001,5.34200134 238.117999,5.66399812 238.246,6.04 C238.374001,6.41600188 238.438,6.83599768 238.438,7.3 L238.438,7.864 L234.262,7.864 C234.334,8.20800172 234.489999,8.48199898 234.73,8.686 C234.970001,8.89000102 235.265998,8.992 235.618,8.992 C235.914001,8.992 236.163999,8.92600066 236.368,8.794 C236.572001,8.66199934 236.749999,8.49200104 236.902,8.284 L238.162,9.208 Z M236.638,6.64 C236.646,6.33599848 236.546001,6.07600108 236.338,5.86 C236.129999,5.64399892 235.862002,5.536 235.534,5.536 C235.333999,5.536 235.158001,5.56799968 235.006,5.632 C234.853999,5.69600032 234.724001,5.7779995 234.616,5.878 C234.507999,5.9780005 234.424,6.09399934 234.364,6.226 C234.304,6.35800066 234.27,6.49599928 234.262,6.64 L236.638,6.64 Z" id="Before-Copy-2" fill="#5C7CFA"></path>
            <path d="M388.744,0.504 L390.292,0.504 L393.988,9 L391.876,9 L391.144,7.2 L387.844,7.2 L387.136,9 L385.072,9 L388.744,0.504 Z M389.464,2.976 L388.432,5.616 L390.508,5.616 L389.464,2.976 Z M395.236,4.608 L394.048,4.608 L394.048,3.168 L395.236,3.168 L395.236,2.136 C395.236,1.8159984 395.264,1.51400142 395.32,1.23 C395.376,0.94599858 395.483999,0.69600108 395.644,0.48 C395.804001,0.26399892 396.033998,0.09400062 396.334,-0.03 C396.634001,-0.15400062 397.027998,-0.216 397.516,-0.216 C397.700001,-0.216 397.879999,-0.20800008 398.056,-0.192 C398.232001,-0.17599992 398.403999,-0.1480002 398.572,-0.108 L398.488,1.416 C398.383999,1.3759998 398.288,1.3460001 398.2,1.326 C398.112,1.3059999 398.012001,1.296 397.9,1.296 C397.611999,1.296 397.396001,1.35799938 397.252,1.482 C397.107999,1.60600062 397.036,1.85999808 397.036,2.244 L397.036,3.168 L398.368,3.168 L398.368,4.608 L397.036,4.608 L397.036,9 L395.236,9 L395.236,4.608 Z M403.024,4.608 L401.44,4.608 L401.44,6.552 C401.44,6.7120008 401.448,6.85799934 401.464,6.99 C401.48,7.12200066 401.516,7.23599952 401.572,7.332 C401.628,7.42800048 401.713999,7.50199974 401.83,7.554 C401.946001,7.60600026 402.099999,7.632 402.292,7.632 C402.388,7.632 402.513999,7.6220001 402.67,7.602 C402.826001,7.5819999 402.944,7.53600036 403.024,7.464 L403.024,8.964 C402.823999,9.03600036 402.616001,9.08399988 402.4,9.108 C402.183999,9.13200012 401.972001,9.144 401.764,9.144 C401.459998,9.144 401.180001,9.11200032 400.924,9.048 C400.667999,8.98399968 400.444001,8.8820007 400.252,8.742 C400.059999,8.6019993 399.910001,8.42000112 399.802,8.196 C399.693999,7.97199888 399.64,7.7000016 399.64,7.38 L399.64,4.608 L398.488,4.608 L398.488,3.168 L399.64,3.168 L399.64,1.44 L401.44,1.44 L401.44,3.168 L403.024,3.168 L403.024,4.608 Z M409.456,7.992 C409.167999,8.36000184 408.804002,8.643999 408.364,8.844 C407.923998,9.044001 407.468002,9.144 406.996,9.144 C406.547998,9.144 406.126002,9.07200072 405.73,8.928 C405.333998,8.78399928 404.990001,8.57800134 404.698,8.31 C404.405999,8.04199866 404.176001,7.72000188 404.008,7.344 C403.839999,6.96799812 403.756,6.54800232 403.756,6.084 C403.756,5.61999768 403.839999,5.20000188 404.008,4.824 C404.176001,4.44799812 404.405999,4.12600134 404.698,3.858 C404.990001,3.58999866 405.333998,3.38400072 405.73,3.24 C406.126002,3.09599928 406.547998,3.024 406.996,3.024 C407.412002,3.024 407.789998,3.09599928 408.13,3.24 C408.470002,3.38400072 408.757999,3.58999866 408.994,3.858 C409.230001,4.12600134 409.411999,4.44799812 409.54,4.824 C409.668001,5.20000188 409.732,5.61999768 409.732,6.084 L409.732,6.648 L405.556,6.648 C405.628,6.99200172 405.783999,7.26599898 406.024,7.47 C406.264001,7.67400102 406.559998,7.776 406.912,7.776 C407.208001,7.776 407.457999,7.71000066 407.662,7.578 C407.866001,7.44599934 408.043999,7.27600104 408.196,7.068 L409.456,7.992 Z M407.932,5.424 C407.94,5.11999848 407.840001,4.86000108 407.632,4.644 C407.423999,4.42799892 407.156002,4.32 406.828,4.32 C406.627999,4.32 406.452001,4.35199968 406.3,4.416 C406.147999,4.48000032 406.018001,4.5619995 405.91,4.662 C405.801999,4.7620005 405.718,4.87799934 405.658,5.01 C405.598,5.14200066 405.564,5.27999928 405.556,5.424 L407.932,5.424 Z M410.824,3.168 L412.624,3.168 L412.624,4.104 L412.648,4.104 C412.840001,3.7439982 413.067999,3.4740009 413.332,3.294 C413.596001,3.1139991 413.927998,3.024 414.328,3.024 C414.432001,3.024 414.535999,3.02799996 414.64,3.036 C414.744001,3.04400004 414.84,3.05999988 414.928,3.084 L414.928,4.728 C414.799999,4.6879998 414.674001,4.6580001 414.55,4.638 C414.425999,4.6179999 414.296001,4.608 414.16,4.608 C413.815998,4.608 413.544001,4.65599952 413.344,4.752 C413.143999,4.84800048 412.990001,4.98199914 412.882,5.154 C412.773999,5.32600086 412.704,5.5319988 412.672,5.772 C412.64,6.0120012 412.624,6.27599856 412.624,6.564 L412.624,9 L410.824,9 L410.824,3.168 Z" id="After" fill="#20C997"></path>
            <path d="M478.744,0.504 L480.292,0.504 L483.988,9 L481.876,9 L481.144,7.2 L477.844,7.2 L477.136,9 L475.072,9 L478.744,0.504 Z M479.464,2.976 L478.432,5.616 L480.508,5.616 L479.464,2.976 Z M485.236,4.608 L484.048,4.608 L484.048,3.168 L485.236,3.168 L485.236,2.136 C485.236,1.8159984 485.264,1.51400142 485.32,1.23 C485.376,0.94599858 485.483999,0.69600108 485.644,0.48 C485.804001,0.26399892 486.033998,0.09400062 486.334,-0.03 C486.634002,-0.15400062 487.027998,-0.216 487.516,-0.216 C487.700001,-0.216 487.879999,-0.20800008 488.056,-0.192 C488.232001,-0.17599992 488.403999,-0.1480002 488.572,-0.108 L488.488,1.416 C488.383999,1.3759998 488.288,1.3460001 488.2,1.326 C488.112,1.3059999 488.012001,1.296 487.9,1.296 C487.611999,1.296 487.396001,1.35799938 487.252,1.482 C487.107999,1.60600062 487.036,1.85999808 487.036,2.244 L487.036,3.168 L488.368,3.168 L488.368,4.608 L487.036,4.608 L487.036,9 L485.236,9 L485.236,4.608 Z M493.024,4.608 L491.44,4.608 L491.44,6.552 C491.44,6.7120008 491.448,6.85799934 491.464,6.99 C491.48,7.12200066 491.516,7.23599952 491.572,7.332 C491.628,7.42800048 491.713999,7.50199974 491.83,7.554 C491.946001,7.60600026 492.099999,7.632 492.292,7.632 C492.388,7.632 492.513999,7.6220001 492.67,7.602 C492.826001,7.5819999 492.944,7.53600036 493.024,7.464 L493.024,8.964 C492.823999,9.03600036 492.616001,9.08399988 492.4,9.108 C492.183999,9.13200012 491.972001,9.144 491.764,9.144 C491.459998,9.144 491.180001,9.11200032 490.924,9.048 C490.667999,8.98399968 490.444001,8.8820007 490.252,8.742 C490.059999,8.6019993 489.910001,8.42000112 489.802,8.196 C489.693999,7.97199888 489.64,7.7000016 489.64,7.38 L489.64,4.608 L488.488,4.608 L488.488,3.168 L489.64,3.168 L489.64,1.44 L491.44,1.44 L491.44,3.168 L493.024,3.168 L493.024,4.608 Z M499.456,7.992 C499.167999,8.36000184 498.804002,8.643999 498.364,8.844 C497.923998,9.044001 497.468002,9.144 496.996,9.144 C496.547998,9.144 496.126002,9.07200072 495.73,8.928 C495.333998,8.78399928 494.990001,8.57800134 494.698,8.31 C494.405999,8.04199866 494.176001,7.72000188 494.008,7.344 C493.839999,6.96799812 493.756,6.54800232 493.756,6.084 C493.756,5.61999768 493.839999,5.20000188 494.008,4.824 C494.176001,4.44799812 494.405999,4.12600134 494.698,3.858 C494.990001,3.58999866 495.333998,3.38400072 495.73,3.24 C496.126002,3.09599928 496.547998,3.024 496.996,3.024 C497.412002,3.024 497.789998,3.09599928 498.13,3.24 C498.470002,3.38400072 498.757999,3.58999866 498.994,3.858 C499.230001,4.12600134 499.411999,4.44799812 499.54,4.824 C499.668001,5.20000188 499.732,5.61999768 499.732,6.084 L499.732,6.648 L495.556,6.648 C495.628,6.99200172 495.783999,7.26599898 496.024,7.47 C496.264001,7.67400102 496.559998,7.776 496.912,7.776 C497.208001,7.776 497.457999,7.71000066 497.662,7.578 C497.866001,7.44599934 498.043999,7.27600104 498.196,7.068 L499.456,7.992 Z M497.932,5.424 C497.94,5.11999848 497.840001,4.86000108 497.632,4.644 C497.423999,4.42799892 497.156002,4.32 496.828,4.32 C496.627999,4.32 496.452001,4.35199968 496.3,4.416 C496.147999,4.48000032 496.018001,4.5619995 495.91,4.662 C495.801999,4.7620005 495.718,4.87799934 495.658,5.01 C495.598,5.14200066 495.564,5.27999928 495.556,5.424 L497.932,5.424 Z M500.824,3.168 L502.624,3.168 L502.624,4.104 L502.648,4.104 C502.840001,3.7439982 503.067999,3.4740009 503.332,3.294 C503.596001,3.1139991 503.927998,3.024 504.328,3.024 C504.432001,3.024 504.535999,3.02799996 504.64,3.036 C504.744001,3.04400004 504.84,3.05999988 504.928,3.084 L504.928,4.728 C504.799999,4.6879998 504.674001,4.6580001 504.55,4.638 C504.425999,4.6179999 504.296001,4.608 504.16,4.608 C503.815998,4.608 503.544001,4.65599952 503.344,4.752 C503.143999,4.84800048 502.990001,4.98199914 502.882,5.154 C502.773999,5.32600086 502.704,5.5319988 502.672,5.772 C502.64,6.0120012 502.624,6.27599856 502.624,6.564 L502.624,9 L500.824,9 L500.824,3.168 Z" id="After-Copy" fill="#20C997"></path>
            <path d="M568.744,0.504 L570.292,0.504 L573.988,9 L571.876,9 L571.144,7.2 L567.844,7.2 L567.136,9 L565.072,9 L568.744,0.504 Z M569.464,2.976 L568.432,5.616 L570.508,5.616 L569.464,2.976 Z M575.236,4.608 L574.048,4.608 L574.048,3.168 L575.236,3.168 L575.236,2.136 C575.236,1.8159984 575.264,1.51400142 575.32,1.23 C575.376,0.94599858 575.483999,0.69600108 575.644,0.48 C575.804001,0.26399892 576.033999,0.09400062 576.334,-0.03 C576.634002,-0.15400062 577.027998,-0.216 577.516,-0.216 C577.700001,-0.216 577.879999,-0.20800008 578.056,-0.192 C578.232001,-0.17599992 578.403999,-0.1480002 578.572,-0.108 L578.488,1.416 C578.383999,1.3759998 578.288,1.3460001 578.2,1.326 C578.112,1.3059999 578.012001,1.296 577.9,1.296 C577.611999,1.296 577.396001,1.35799938 577.252,1.482 C577.107999,1.60600062 577.036,1.85999808 577.036,2.244 L577.036,3.168 L578.368,3.168 L578.368,4.608 L577.036,4.608 L577.036,9 L575.236,9 L575.236,4.608 Z M583.024,4.608 L581.44,4.608 L581.44,6.552 C581.44,6.7120008 581.448,6.85799934 581.464,6.99 C581.48,7.12200066 581.516,7.23599952 581.572,7.332 C581.628,7.42800048 581.713999,7.50199974 581.83,7.554 C581.946001,7.60600026 582.099999,7.632 582.292,7.632 C582.388,7.632 582.513999,7.6220001 582.67,7.602 C582.826001,7.5819999 582.944,7.53600036 583.024,7.464 L583.024,8.964 C582.823999,9.03600036 582.616001,9.08399988 582.4,9.108 C582.183999,9.13200012 581.972001,9.144 581.764,9.144 C581.459998,9.144 581.180001,9.11200032 580.924,9.048 C580.667999,8.98399968 580.444001,8.8820007 580.252,8.742 C580.059999,8.6019993 579.910001,8.42000112 579.802,8.196 C579.693999,7.97199888 579.64,7.7000016 579.64,7.38 L579.64,4.608 L578.488,4.608 L578.488,3.168 L579.64,3.168 L579.64,1.44 L581.44,1.44 L581.44,3.168 L583.024,3.168 L583.024,4.608 Z M589.456,7.992 C589.167999,8.36000184 588.804002,8.643999 588.364,8.844 C587.923998,9.044001 587.468002,9.144 586.996,9.144 C586.547998,9.144 586.126002,9.07200072 585.73,8.928 C585.333998,8.78399928 584.990001,8.57800134 584.698,8.31 C584.405999,8.04199866 584.176001,7.72000188 584.008,7.344 C583.839999,6.96799812 583.756,6.54800232 583.756,6.084 C583.756,5.61999768 583.839999,5.20000188 584.008,4.824 C584.176001,4.44799812 584.405999,4.12600134 584.698,3.858 C584.990001,3.58999866 585.333998,3.38400072 585.73,3.24 C586.126002,3.09599928 586.547998,3.024 586.996,3.024 C587.412002,3.024 587.789998,3.09599928 588.13,3.24 C588.470002,3.38400072 588.757999,3.58999866 588.994,3.858 C589.230001,4.12600134 589.411999,4.44799812 589.54,4.824 C589.668001,5.20000188 589.732,5.61999768 589.732,6.084 L589.732,6.648 L585.556,6.648 C585.628,6.99200172 585.783999,7.26599898 586.024,7.47 C586.264001,7.67400102 586.559998,7.776 586.912,7.776 C587.208001,7.776 587.457999,7.71000066 587.662,7.578 C587.866001,7.44599934 588.043999,7.27600104 588.196,7.068 L589.456,7.992 Z M587.932,5.424 C587.94,5.11999848 587.840001,4.86000108 587.632,4.644 C587.423999,4.42799892 587.156002,4.32 586.828,4.32 C586.627999,4.32 586.452001,4.35199968 586.3,4.416 C586.147999,4.48000032 586.018001,4.5619995 585.91,4.662 C585.801999,4.7620005 585.718,4.87799934 585.658,5.01 C585.598,5.14200066 585.564,5.27999928 585.556,5.424 L587.932,5.424 Z M590.824,3.168 L592.624,3.168 L592.624,4.104 L592.648,4.104 C592.840001,3.7439982 593.067999,3.4740009 593.332,3.294 C593.596001,3.1139991 593.927998,3.024 594.328,3.024 C594.432001,3.024 594.535999,3.02799996 594.64,3.036 C594.744001,3.04400004 594.84,3.05999988 594.928,3.084 L594.928,4.728 C594.799999,4.6879998 594.674001,4.6580001 594.55,4.638 C594.425999,4.6179999 594.296001,4.608 594.16,4.608 C593.815998,4.608 593.544001,4.65599952 593.344,4.752 C593.143999,4.84800048 592.990001,4.98199914 592.882,5.154 C592.773999,5.32600086 592.704,5.5319988 592.672,5.772 C592.64,6.0120012 592.624,6.27599856 592.624,6.564 L592.624,9 L590.824,9 L590.824,3.168 Z" id="After-Copy-2" fill="#20C997"></path>
        </g>
    </g>
</svg>